<svg xmlns="http://www.w3.org/2000/svg" width="269.2381" height="80.0744" viewBox="0 0 269.2381 80.0744"><defs><style>.cls-1{fill:#333;}.cls-2{fill:#fff;}</style></defs><g id="Layer_2" data-name="Layer 2"><g id="INDEX_XG" data-name="INDEX XG"><rect class="cls-1" y="23.6727" width="269.2381" height="56.4017" rx="12"/><path class="cls-2" d="M33.2677,63.0444q4.0988,0,6.168-4.2529H46.255A12.5711,12.5711,0,0,1,41.6,66.0708a13.1593,13.1593,0,0,1-8.2559,2.7583A13.0446,13.0446,0,0,1,23.8048,64.96a13.3639,13.3639,0,0,1-.038-18.8492,12.9826,12.9826,0,0,1,9.5009-3.831,12.62,12.62,0,0,1,11.34,6.168,10.7533,10.7533,0,0,1,1.6474,4.061H39.4357a6.8414,6.8414,0,0,0-2.4326-3.2476,6.5873,6.5873,0,0,0-8.64.938A7.5528,7.5528,0,0,0,26.41,55.4971a7.6987,7.6987,0,0,0,1.9727,5.375A6.3342,6.3342,0,0,0,33.2677,63.0444Z" transform="translate(0 -3.6841)"/><path class="cls-2" d="M61.5021,68.8291a13.059,13.059,0,0,1-9.5391-3.812,12.68,12.68,0,0,1-3.87-9.4053,12.8716,12.8716,0,0,1,3.8506-9.501,13.0124,13.0124,0,0,1,9.5586-3.831,13.2358,13.2358,0,0,1,9.6348,3.85,13.2962,13.2962,0,0,1,0,18.8681A13.2685,13.2685,0,0,1,61.5021,68.8291Zm.0762-20.7642a6.53,6.53,0,0,0-4.98,2.1343,7.47,7.47,0,0,0-1.9912,5.2979,7.5959,7.5959,0,0,0,2.0107,5.394,6.6061,6.6061,0,0,0,5.0381,2.1533,6.4179,6.4179,0,0,0,4.9033-2.1533,7.4856,7.4856,0,0,0,1.9922-5.2793,7.6126,7.6126,0,0,0-2.0107-5.374A6.4934,6.4934,0,0,0,61.5783,48.0649Z" transform="translate(0 -3.6841)"/><path class="cls-2" d="M84.5646,68.3311H78.32V42.7778h5.5937l9.961,16.09-.2686-16.09h6.2451V68.3311h-5.67L84.2961,52.8154Z" transform="translate(0 -3.6841)"/><path class="cls-2" d="M113.8722,68.3311H107.36V48.563h-5.0576V42.7778h16.627V48.563h-5.0567Z" transform="translate(0 -3.6841)"/><path class="cls-2" d="M136.1681,68.3311l-1.2256-3.7164h-8.8877l-1.3408,3.7164h-7.0107l10.2285-25.5533h5.1719L143.256,68.3311ZM130.5373,50.708l-2.6817,8.7349H133.18Z" transform="translate(0 -3.6841)"/><path class="cls-2" d="M156.5109,63.0444q4.0986,0,6.168-4.2529h6.8193a12.5649,12.5649,0,0,1-4.6543,7.2793A13.7134,13.7134,0,0,1,147.048,64.96a13.3664,13.3664,0,0,1-.0381-18.8492,12.9844,12.9844,0,0,1,9.501-3.831,12.6175,12.6175,0,0,1,11.34,6.168,10.7373,10.7373,0,0,1,1.6475,4.061h-6.8193a6.8289,6.8289,0,0,0-2.4327-3.2476,6.5859,6.5859,0,0,0-8.6386.938,7.5531,7.5531,0,0,0-1.9541,5.2979,7.6991,7.6991,0,0,0,1.9726,5.375A6.3346,6.3346,0,0,0,156.5109,63.0444Z" transform="translate(0 -3.6841)"/><path class="cls-2" d="M182.0636,68.3311h-6.5127V48.563h-5.0566V42.7778h16.6269V48.563h-5.0576Z" transform="translate(0 -3.6841)"/><path class="cls-2" d="M205.088,68.3311h-5.9765V42.7778h8.3906l5.0566,16.8184,5.0567-16.8184h8.4287V68.3311H220.03l.2294-19.1934-5.5166,19.1934h-4.3291l-5.5166-19.1934Z" transform="translate(0 -3.6841)"/><path class="cls-2" d="M244.5861,68.3311H230.4113V42.7778h14.1748V48.563h-7.9307v3.9077h7.7012v5.7847h-7.7012v4.291h7.9307Z" transform="translate(0 -3.6841)"/><path class="cls-1" d="M37.505,3.9961V20.0039H35.08L27.1125,7.644v12.36H24.7843V3.9961h2.544L35.1525,16.188V3.9961Z" transform="translate(0 -3.6841)"/><path class="cls-1" d="M50.6564,16.2358h2.2559a6.0586,6.0586,0,0,1-2.2315,2.9761,5.9219,5.9219,0,0,1-3.5039,1.104,5.7992,5.7992,0,0,1-4.32-1.86,6.2042,6.2042,0,0,1-1.8-4.4761,6.2751,6.2751,0,0,1,1.8-4.5122,5.8332,5.8332,0,0,1,4.3682-1.8721,5.77,5.77,0,0,1,4.2841,1.8364,6.0891,6.0891,0,0,1,1.7872,4.4038q0,.3838-.0713,1.1519H43.3127A4.3326,4.3326,0,0,0,44.74,17.3589a3.8222,3.8222,0,0,0,2.5322.8931A3.7139,3.7139,0,0,0,50.6564,16.2358Zm-6.4082-5.28a4.3538,4.3538,0,0,0-.9355,2.3037h7.7519a3.5965,3.5965,0,0,0-1.2119-2.544,3.9379,3.9379,0,0,0-5.6045.24Z" transform="translate(0 -3.6841)"/><path class="cls-1" d="M65.632,16.2358h2.2558a6.0578,6.0578,0,0,1-2.2314,2.9761,5.9219,5.9219,0,0,1-3.5039,1.104,5.7992,5.7992,0,0,1-4.32-1.86,6.2042,6.2042,0,0,1-1.8-4.4761,6.2751,6.2751,0,0,1,1.8-4.5122A5.8331,5.8331,0,0,1,62.2,7.5957a5.77,5.77,0,0,1,4.2842,1.8364,6.0891,6.0891,0,0,1,1.7871,4.4038q0,.3838-.0713,1.1519H58.2882a4.3333,4.3333,0,0,0,1.4278,2.3711,3.822,3.822,0,0,0,2.5322.8931A3.7139,3.7139,0,0,0,65.632,16.2358Zm-6.4082-5.28a4.3547,4.3547,0,0,0-.9356,2.3037H66.04a3.5973,3.5973,0,0,0-1.2119-2.544,3.9379,3.9379,0,0,0-5.6045.24Z" transform="translate(0 -3.6841)"/><path class="cls-1" d="M83.6086,3.9961V20.0039H81.52V18.3a5.2134,5.2134,0,0,1-4.2959,2.0161,5.9141,5.9141,0,0,1-4.416-1.8242,6.2747,6.2747,0,0,1-1.7754-4.56,6.1489,6.1489,0,0,1,1.74-4.4282,5.6487,5.6487,0,0,1,4.2354-1.812,6.2545,6.2545,0,0,1,2.4961.5278,4.6,4.6,0,0,1,1.872,1.3682V3.9961ZM77.3439,18.252a3.9364,3.9364,0,0,0,2.9766-1.2652,4.3969,4.3969,0,0,0,1.1992-3.15,3.89,3.89,0,0,0-1.2119-2.9,4.1131,4.1131,0,0,0-2.9873-1.1811,3.86,3.86,0,0,0-2.8926,1.205A4.1717,4.1717,0,0,0,73.2638,13.98a4.22,4.22,0,0,0,1.1885,3.0312A3.8525,3.8525,0,0,0,77.3439,18.252Z" transform="translate(0 -3.6841)"/><path class="cls-1" d="M112.6242,3.9961l-4.4649,16.0078h-2.04L103.1916,8.82l-2.9278,11.1841H98.1994L93.7355,3.9961h2.4238l3.0723,12.0478,3.12-12.0478h1.7041l3.0723,11.9756,3.12-11.9756Z" transform="translate(0 -3.6841)"/><path class="cls-1" d="M120.6886,7.6919a6.3749,6.3749,0,0,1,4.584,1.8242,5.9022,5.9022,0,0,1,1.8955,4.416,6.11,6.11,0,0,1-1.8955,4.5117,6.5195,6.5195,0,0,1-9.1445,0,6.11,6.11,0,0,1-1.8955-4.5117,5.9022,5.9022,0,0,1,1.8955-4.416A6.3433,6.3433,0,0,1,120.6886,7.6919Zm.0117,10.56a4.059,4.059,0,0,0,2.9961-1.253,4.1383,4.1383,0,0,0,1.24-3.019,4.2364,4.2364,0,0,0-8.4727,0,4.1374,4.1374,0,0,0,1.2393,3.019A4.0612,4.0612,0,0,0,120.7,18.252Z" transform="translate(0 -3.6841)"/><path class="cls-1" d="M143.08,8.0039h2.4l-4.44,12h-1.2481l-2.6162-8.064-2.6162,8.064h-1.248l-4.4639-12h2.4l2.6875,7.8,2.4961-7.8H137.92l2.4961,7.8Z" transform="translate(0 -3.6841)"/><path class="cls-1" d="M158.008,13.0918v6.9121H155.68V3.9961h8.0645v2.16H158.008v4.8h5.7363v2.1357Z" transform="translate(0 -3.6841)"/><path class="cls-1" d="M179.08,8.0039v12h-2.0644V18.1318a4.4342,4.4342,0,0,1-1.2959,1.32,5.9734,5.9734,0,0,1-3.2158.8638,5.8478,5.8478,0,0,1-4.3682-1.8,6.1493,6.1493,0,0,1-1.752-4.4643,6.21,6.21,0,0,1,1.7881-4.5479,6.0307,6.0307,0,0,1,4.4766-1.812,5.9041,5.9041,0,0,1,2.5674.5708,4.252,4.252,0,0,1,1.8,1.4932V8.0039ZM172.72,18.252a3.9419,3.9419,0,0,0,2.916-1.2325,4.0949,4.0949,0,0,0,1.2119-2.98,4.2546,4.2546,0,0,0-1.1992-3.0512,4.0245,4.0245,0,0,0-5.832-.0122,4.211,4.211,0,0,0-1.2,3.04,4.1322,4.1322,0,0,0,1.2119,2.9917A3.8975,3.8975,0,0,0,172.72,18.252Z" transform="translate(0 -3.6841)"/><path class="cls-1" d="M191.9914,16.0439h2.4961a6.244,6.244,0,0,1-2.2559,3.12,6.0407,6.0407,0,0,1-3.6475,1.1518,5.8181,5.8181,0,0,1-4.3564-1.8242A6.2367,6.2367,0,0,1,182.464,13.98a6.157,6.157,0,0,1,1.7754-4.4639,5.8887,5.8887,0,0,1,4.3926-1.8242,6.1172,6.1172,0,0,1,3.7314,1.2358,5.3775,5.3775,0,0,1,2.1241,3.084h-2.4961a3.76,3.76,0,0,0-3.3594-2.2558,3.6786,3.6786,0,0,0-2.82,1.205,4.2726,4.2726,0,0,0-1.1162,3.0191,4.3359,4.3359,0,0,0,1.1406,3.0068A3.5437,3.5437,0,0,0,188.56,18.252a3.6928,3.6928,0,0,0,2.0156-.5938A3.7689,3.7689,0,0,0,191.9914,16.0439Z" transform="translate(0 -3.6841)"/><path class="cls-1" d="M202.2873,10.0679h-1.9922v9.936h-2.2315v-9.936h-1.6318V8.0039h1.6318V3.9961h2.2315V8.0039h1.9922Z" transform="translate(0 -3.6841)"/><path class="cls-1" d="M210.7843,7.6919a6.3749,6.3749,0,0,1,4.584,1.8242,5.9022,5.9022,0,0,1,1.8955,4.416,6.11,6.11,0,0,1-1.8955,4.5117,6.5195,6.5195,0,0,1-9.1445,0,6.11,6.11,0,0,1-1.8955-4.5117,5.9022,5.9022,0,0,1,1.8955-4.416A6.3433,6.3433,0,0,1,210.7843,7.6919Zm.0118,10.56a4.0588,4.0588,0,0,0,2.996-1.253,4.1383,4.1383,0,0,0,1.24-3.019,4.2364,4.2364,0,0,0-8.4727,0,4.1374,4.1374,0,0,0,1.2393,3.019A4.0612,4.0612,0,0,0,210.7961,18.252Z" transform="translate(0 -3.6841)"/><path class="cls-1" d="M222.9035,13.4521v6.5518H220.672v-12H222.76v1.08a3.966,3.966,0,0,1,3.0957-1.3921V9.9961Q222.9039,10.2364,222.9035,13.4521Z" transform="translate(0 -3.6841)"/><path class="cls-1" d="M235.4074,12.3237a5.42,5.42,0,0,0-1.2959,1.5362,6.67,6.67,0,0,0-.5762,2.04h-2.2314a6.9373,6.9373,0,0,1,2.4629-5.0161,3.3771,3.3771,0,0,0,1.3525-2.2559,2.6171,2.6171,0,0,0-.7461-1.896,2.4545,2.4545,0,0,0-1.83-.768q-2.2383,0-2.5761,2.5918H227.68A5.1845,5.1845,0,0,1,229.1554,5.04a4.8252,4.8252,0,0,1,6.78.0718,4.6887,4.6887,0,0,1,1.416,3.42,4.1773,4.1773,0,0,1-1.44,3.36Zm-4.1035,5.04h2.2314v2.64h-2.2314Z" transform="translate(0 -3.6841)"/></g></g></svg>