<svg id="Layer_1" data-name="Layer 1" xmlns="http://www.w3.org/2000/svg" width="157" height="78" viewBox="0 0 157 78"><defs><style>.cls-1{opacity:0.5;}.cls-2{fill:#fff;}</style></defs><path d="M9.7515,43.1H4.8477V23.0317h6.5585q4.3625,0,6.168,1.5044a6.5662,6.5662,0,0,1,2.3467,5.3252,6.7666,6.7666,0,0,1-2.106,5.2051q-1.8662,1.7447-5.8671,1.7446H9.7515Zm0-15.5249v4.6934h2.0761q3.189,0,3.189-2.3316,0-2.3613-3.3994-2.3618Z"/><path d="M31.9243,43.49a10.2581,10.2581,0,0,1-7.4912-2.9941,9.9562,9.9562,0,0,1-3.0386-7.3853,10.1068,10.1068,0,0,1,3.0235-7.4614,10.22,10.22,0,0,1,7.5063-3.0088,10.3926,10.3926,0,0,1,7.5669,3.024,9.9838,9.9838,0,0,1,3.0835,7.416,9.9327,9.9327,0,0,1-3.0835,7.4008A10.421,10.421,0,0,1,31.9243,43.49Zm.0606-16.3066A5.1281,5.1281,0,0,0,28.0737,28.86a5.8648,5.8648,0,0,0-1.5644,4.1606,5.9656,5.9656,0,0,0,1.5791,4.2358,5.1871,5.1871,0,0,0,3.9565,1.691,5.0415,5.0415,0,0,0,3.8511-1.691A5.8806,5.8806,0,0,0,37.46,33.1108a5.98,5.98,0,0,0-1.58-4.2207A5.1,5.1,0,0,0,31.9849,27.1836Z"/><path d="M50.0356,43.1H45.1318V23.0317H51.48a18.56,18.56,0,0,1,3.8662.3008,5.3577,5.3577,0,0,1,2.3013,1.1436,6.7834,6.7834,0,0,1,2.4672,5.5053,6.5213,6.5213,0,0,1-1.354,4.1973,5.7049,5.7049,0,0,1-3.64,2.0908l5.4453,6.83H54.6992l-4.6636-6.499Zm0-15.5249v5.5361h1.8052q3.34,0,3.34-2.8129,0-2.7232-3.2793-2.7232Z"/><path d="M70.3437,43.1H65.23V27.5747H61.2578v-4.543H74.3154v4.543H70.3437Z"/><path d="M81.1138,43.1H76.21V23.0317H87.1611v4.543H81.1138v3.34h5.8369v4.5429H81.1138Z"/><path d="M99.2559,43.49a10.2566,10.2566,0,0,1-7.4913-2.9941,9.955,9.955,0,0,1-3.039-7.3853,10.1071,10.1071,0,0,1,3.0234-7.4614,10.2211,10.2211,0,0,1,7.5069-3.0088,10.3918,10.3918,0,0,1,7.5664,3.024,9.9845,9.9845,0,0,1,3.0839,7.416,9.9335,9.9335,0,0,1-3.0839,7.4008A10.42,10.42,0,0,1,99.2559,43.49Zm.0605-16.3066A5.1273,5.1273,0,0,0,95.4053,28.86a5.8622,5.8622,0,0,0-1.5645,4.1606A5.9661,5.9661,0,0,0,95.42,37.2563a5.1855,5.1855,0,0,0,3.9561,1.691,5.0422,5.0422,0,0,0,3.8515-1.691,5.8829,5.8829,0,0,0,1.5645-4.1455,5.98,5.98,0,0,0-1.58-4.2207A5.0975,5.0975,0,0,0,99.3164,27.1836Z"/><path d="M123.5049,43.1h-11.042V23.0317h5.1152V38.5566h5.9268Z"/><path d="M130.7256,43.1H125.61V23.0317h5.1152Z"/><path d="M143.8115,43.49a10.26,10.26,0,0,1-7.4912-2.9941,9.9577,9.9577,0,0,1-3.0381-7.3853,10.1068,10.1068,0,0,1,3.0235-7.4614,10.2185,10.2185,0,0,1,7.5058-3.0088,10.3938,10.3938,0,0,1,7.5674,3.024,9.9833,9.9833,0,0,1,3.083,7.416,9.9323,9.9323,0,0,1-3.083,7.4008A10.4221,10.4221,0,0,1,143.8115,43.49Zm.0606-16.3066a5.1289,5.1289,0,0,0-3.9112,1.6763,5.8669,5.8669,0,0,0-1.5644,4.1606,5.9661,5.9661,0,0,0,1.5791,4.2358,5.1889,5.1889,0,0,0,3.957,1.691,5.04,5.04,0,0,0,3.8506-1.691,5.8785,5.8785,0,0,0,1.5645-4.1455,5.98,5.98,0,0,0-1.5791-4.2207A5.1014,5.1014,0,0,0,143.8721,27.1836Z"/><g class="cls-1"><path d="M53.3823,12.8594V9.7905h8.9131q.0454.7223.0454.7671a7.9029,7.9029,0,0,1-8.0556,8.0781,7.7268,7.7268,0,0,1-5.6524-2.2905,7.56,7.56,0,0,1-2.313-5.5845A7.3616,7.3616,0,0,1,48.644,5.2324a8.2854,8.2854,0,0,1,10.4473-.7109,6.85,6.85,0,0,1,2.7754,3.8247h-4.31a3.5075,3.5075,0,0,0-3.2944-1.94A3.9277,3.9277,0,0,0,51.3291,7.61a4.1354,4.1354,0,0,0-1.1733,3.0048,4.7508,4.7508,0,0,0,1.1958,3.376,4.142,4.142,0,0,0,3.1816,1.2827,3.5845,3.5845,0,0,0,2.1548-.643,2.9548,2.9548,0,0,0,1.1621-1.771Z"/><path d="M71.5239,18.6357a7.6912,7.6912,0,0,1-5.6181-2.2451,7.4664,7.4664,0,0,1-2.2793-5.5395A7.5807,7.5807,0,0,1,65.894,5.2549a7.6656,7.6656,0,0,1,5.63-2.2564,7.7975,7.7975,0,0,1,5.6753,2.2676,7.4894,7.4894,0,0,1,2.3125,5.562,7.4528,7.4528,0,0,1-2.3125,5.5513A7.8172,7.8172,0,0,1,71.5239,18.6357Zm.0454-12.23a3.8456,3.8456,0,0,0-2.9336,1.2573,4.3992,4.3992,0,0,0-1.1733,3.12A4.4751,4.4751,0,0,0,68.647,13.96a3.8916,3.8916,0,0,0,2.9673,1.2681A3.7809,3.7809,0,0,0,74.5024,13.96a4.41,4.41,0,0,0,1.1734-3.1093,4.483,4.483,0,0,0-1.1846-3.1656A3.8241,3.8241,0,0,0,71.5693,6.4058Z"/><path d="M92.7568,18.3423H88.9209V6.6992H85.9424V3.292h9.793V6.6992H92.7568Z"/><path d="M104.1523,18.6357a7.69,7.69,0,0,1-5.6181-2.2451,7.4649,7.4649,0,0,1-2.2793-5.5395,7.58,7.58,0,0,1,2.2676-5.5962,7.664,7.664,0,0,1,5.63-2.2564,7.7953,7.7953,0,0,1,5.6748,2.2676,7.4875,7.4875,0,0,1,2.3125,5.562,7.451,7.451,0,0,1-2.3125,5.5513A7.8149,7.8149,0,0,1,104.1523,18.6357Zm.045-12.23a3.846,3.846,0,0,0-2.9336,1.2573,4.3985,4.3985,0,0,0-1.1729,3.12,4.4733,4.4733,0,0,0,1.1846,3.1772,3.89,3.89,0,0,0,2.9668,1.2681,3.7815,3.7815,0,0,0,2.8887-1.2681,4.41,4.41,0,0,0,1.1728-3.1093,4.4826,4.4826,0,0,0-1.1846-3.1656A3.8232,3.8232,0,0,0,104.1973,6.4058Z"/></g><polygon class="cls-2" points="79.219 50.621 102.975 50.621 91.097 62.686 79.219 74.752 67.341 62.686 55.463 50.621 79.219 50.621"/><path d="M79.2187,75.4648,54.269,50.1211h49.9ZM56.6567,51.1211l22.562,22.918L101.78,51.1211Z"/></svg>