<svg id="Layer_1" preserveAspectRatio="xMidYMid meet" data-name="Layer 1" xmlns="http://www.w3.org/2000/svg" width="287" height="169" viewBox="0 0 287 169"><defs><style>.cls-1{fill:#ff4800;}</style></defs><path d="M32.7266,69.6592a13.5659,13.5659,0,0,1,2.4848,4.1792,22.9126,22.9126,0,0,1,.9038,5.6855H23.3892q-.6776-4.8186-4.5933-4.8193a4.6461,4.6461,0,0,0-3.125,1.1294,3.4548,3.4548,0,0,0-1.3179,2.7109q0,3.0125,4.2925,4.97L24.82,86.3008q6.3259,2.8623,8.9986,6.1748a12.7726,12.7726,0,0,1,2.6733,8.2832q0,7.229-4.6309,11.2949T18.9468,116.12q-8.4346,0-13.3286-4.293Q.7226,107.5352.7236,100.2314V98.5742H13.6a7.9378,7.9378,0,0,0,1.4038,4.9326,4.5515,4.5515,0,0,0,3.8311,1.8448A4.9319,4.9319,0,0,0,22.4,103.959a4.5828,4.5828,0,0,0,1.4414-3.4268q0-3.2358-5.3642-5.4218l-5.8179-2.4092a26.1438,26.1438,0,0,1-6.0445-3.5391A12.7479,12.7479,0,0,1,1.5522,78.771a13.2532,13.2532,0,0,1,5.12-10.5425,18.8057,18.8057,0,0,1,12.5-4.292Q27.9827,63.9365,32.7266,69.6592Z"/><path d="M53.66,115.1406H40.8584V64.9155H53.66Z"/><path d="M79.2612,115.1406H66.46V76.2856H56.5205v-11.37h32.68v11.37H79.2612Z"/><path d="M119.9229,115.1406H92.0615V64.9155h27.8614v11.37h-15.587v7.68h15.1353V95.3369H104.3359v8.4336h15.587Z"/><path d="M154.335,69.6592a13.5536,13.5536,0,0,1,2.4843,4.1792,22.9325,22.9325,0,0,1,.9043,5.6855h-12.726q-.6776-4.8186-4.5933-4.8193a4.6461,4.6461,0,0,0-3.125,1.1294,3.4548,3.4548,0,0,0-1.3179,2.7109q0,3.0125,4.2925,4.97l6.1743,2.7862q6.3259,2.8623,8.9986,6.1748a12.7723,12.7723,0,0,1,2.6728,8.2832q0,7.229-4.63,11.2949t-12.914,4.0664q-8.4347,0-13.3286-4.293-4.8955-4.2919-4.8946-11.5957V98.5742h12.8765a7.9378,7.9378,0,0,0,1.4038,4.9326,4.5515,4.5515,0,0,0,3.8311,1.8448,4.9319,4.9319,0,0,0,3.5649-1.3926,4.5828,4.5828,0,0,0,1.4414-3.4268q0-3.2358-5.3643-5.4218l-5.8178-2.4092a26.1438,26.1438,0,0,1-6.0445-3.5391,12.7479,12.7479,0,0,1-5.0625-10.3911,13.2532,13.2532,0,0,1,5.12-10.5425,18.8057,18.8057,0,0,1,12.5-4.292Q149.5911,63.9365,154.335,69.6592Z"/><path d="M63.8486,58.8687H51.0474V8.6431H63.8486Z"/><path d="M103.3057,58.8687H87.417V8.6431h15.437a52.3227,52.3227,0,0,1,9.2993.6025,11.334,11.334,0,0,1,5.0078,2.1836,12.536,12.536,0,0,1,4.7437,10.3916,11.0377,11.0377,0,0,1-5.7979,10.1655q8.2823,2.7869,8.2827,11.6714a14.2063,14.2063,0,0,1-4.5932,10.8433,14.548,14.548,0,0,1-6.0991,3.5019A44.3608,44.3608,0,0,1,103.3057,58.8687ZM99.6914,20.0132V27.77H104.21q5.4213,0,5.4214-3.9521,0-3.8035-5.4214-3.8042Zm0,18.4487V47.498h6.0239q6.3991,0,6.4-4.705,0-4.3308-6.4-4.3311Z"/><path d="M128.4556,39.0645V8.6431h12.8012V39.0068q0,9.47,6.5508,9.47,3.5391,0,4.97-2.1036,1.429-2.1042,1.4307-7.3667V8.6431H167.01V39.0645q0,10.2414-4.9707,15.3613-5.2705,5.422-14.2315,5.4219-9.0359,0-14.3071-5.3467a16.3429,16.3429,0,0,1-3.9531-6.2119A30.4378,30.4378,0,0,1,128.4556,39.0645Z"/><path d="M185.9854,58.8687H173.1836V8.6431h12.8018Z"/><path d="M220.2461,58.8687H192.61V8.6431h12.8017V47.498h14.834Z"/><path d="M243.3633,58.8687H223.6348V8.6431H240.502q10.0135,0,15.8134,3.6142a20.9375,20.9375,0,0,1,6.1,5.7984,25.9063,25.9063,0,0,1,4.5928,15.5117q0,11.447-6.4756,18.3735Q254.0548,58.87,243.3633,58.8687Zm-6.9278-38.8555V47.498h5.4971q12.2725,0,12.2744-13.5551,0-6.6644-3.1631-10.2974t-9.0361-3.6323Z"/><path class="cls-1" d="M188.0347,109.5237a2.7252,2.7252,0,0,0-2.5-.8948,11.5912,11.5912,0,0,0-3.0749.7966,24.59,24.59,0,0,0-2.783,1.3315,5.3957,5.3957,0,0,1-1.6213.7267,6.65,6.65,0,0,1,.1912-1.4021q.199-.9132.3973-1.8684t.3279-1.7288q.1295-.7731-.0139-.8972a1.84,1.84,0,0,1-.3257-.4414.3655.3655,0,0,0-.0731-.1435.7265.7265,0,0,1-.1085-.1335,1.8626,1.8626,0,0,0-.4306-.3291,2.16,2.16,0,0,0-1.8821-.2476,2.1251,2.1251,0,0,0-1.5748,1.38,14.6887,14.6887,0,0,0-.6093,1.9612q-.3365,1.3139-.6351,2.6558t-.5688,2.39a4.07,4.07,0,0,1-.3393,1.0664,22.0174,22.0174,0,0,1-2.5429.8485q-1.3443.3628-2.5444.7679-.9906.2673-3.039.9a27.9031,27.9031,0,0,1-4.4571.963,17.49,17.49,0,0,1-4.7514.0154,6.3362,6.3362,0,0,1-3.848-1.87q-.72-1.1408-2.1251.0362a16.6,16.6,0,0,0,.5493,5.1179q.8854,3.303,3.7982,3.5626a13.5554,13.5554,0,0,0,4.2935-.0948q2.73-.3942,5.3841-1.0472,2.6552-.6508,4.707-1.2682,2.051-.6149,2.4055-.7091a13.364,13.364,0,0,1-.3888,2.69q-.4652,2.3834-1.2356,5.807c-.2385,1.0564-.4878,2.1532-.7458,3.2821-.0427.0685-.0907.1328-.1325.2021q-.3129.52-.59,1.0712-.97,2.0888-2.3905,4.9985-1.4233,2.905-2.7079,5.5623-1.2872,2.6546-2.2965,4.596a16.3037,16.3037,0,0,1-1.1521,2.05q.066-.332.5111-1.9854.4434-1.6533,1.0244-3.7392.579-2.0883,1.23-4.2381.65-2.15,1.06-3.5307.1356-.5122.272-1.0256a7.5557,7.5557,0,0,0,.2-1.0892,1.6638,1.6638,0,0,0-.302-1.367,9.8712,9.8712,0,0,0-1.2244-1.1778q-.6462-.5177-1.2933-1.0756-1.0758-.7662-2.0551.5921a10.1606,10.1606,0,0,0-.9751,1.7521q-1.3847,3.358-2.9149,6.4559-1.5326,3.0917-2.7889,5.4337-1.5384,2.7969-2.9394,5.1554-.0007-.0771.4121-1.5062t1.0336-3.42q.62-1.9917,1.2755-3.9989t1.14-3.15q.5547-1.3184,1.181-2.617t1.3226-2.5807a10.166,10.166,0,0,1,1.9957-2.64,5.5061,5.5061,0,0,1,2.72-1.4009,4.9165,4.9165,0,0,0,.7789-.2767q.4238-.1856.9193-.3915a2.71,2.71,0,0,1-.1856-.6322.6227.6227,0,0,0-.1827-.393,10.1263,10.1263,0,0,0-.7584-1.0039q-.3969-.455-.7572-.9218a2.9969,2.9969,0,0,0-3.5613-.8275,8.9755,8.9755,0,0,0-3.2437,2.0268,19.1634,19.1634,0,0,0-2.3479,2.9275,30.8823,30.8823,0,0,0-1.8492,3.2571,64.8739,64.8739,0,0,0-3.6058,9.3753l-.0011.004q-1.1231,2.2455-2.2006,4.4517-2.0634,4.2089-4.5925,8.4925a6.0779,6.0779,0,0,1,.3055-1.8082q.3785-1.5153.9312-3.6552.5511-2.141,1.1712-4.5745t1.204-4.6363q.584-2.2005.9607-3.8514.375-1.6491.4418-2.2117a3.3131,3.3131,0,0,0-.8779-2.8138q-.5748-.6294-1.1466-1.1829-.5737-.5508-1.2161-1.0829a2.2308,2.2308,0,0,0-2.38-.4259,4.0445,4.0445,0,0,0-2.219,2.0028q-.35.7075-.9426,2.0128t-1.2575,2.7018q-.6654,1.3961-1.2594,2.6172a11.6342,11.6342,0,0,1-.9471,1.69c.0446-.3173.0783-.567.1014-.752a3.421,3.421,0,0,1,.1029-.5231q.9622-4.4523,1.8533-8.8275c.03-.15.0645-.3026.0952-.453l.0083.0035a1.4744,1.4744,0,0,0,.3908.09q.7813.2566,1.271-.717a4.542,4.542,0,0,0,.4156-1.3027,8.8575,8.8575,0,0,0,.1294-1.6127,8.9574,8.9574,0,0,0-.1543-1.6148,2.2217,2.2217,0,0,0-.5759-1.1919c-.04-.0419-.088-.0683-.1295-.107.1352-.6314.26-1.2575.397-1.89q.2725-1.23.3745-1.912a2.0339,2.0339,0,0,0-.079-1.0954,1.8544,1.8544,0,0,0-.6428-.7448,14.8406,14.8406,0,0,0-1.386-.8426,2.6829,2.6829,0,0,0-1.3115-.3605,2.9123,2.9123,0,0,0-1.5869.6375,21.2342,21.2342,0,0,0-.6215,2.2373c-.3585,1.435-.6873,2.8583-1.0333,4.2882-.8311.3467-1.616.7083-2.3293,1.0943a5.763,5.763,0,0,1-1.6242.7066,5.8708,5.8708,0,0,1,.2046-1.3073q.2074-.8529.4146-1.7449t.3441-1.614q.1368-.7214-.005-.834a1.6452,1.6452,0,0,1-.32-.404.32.32,0,0,0-.0714-.132.6565.6565,0,0,1-.1069-.122,1.7659,1.7659,0,0,0-.4262-.2975,2.2619,2.2619,0,0,0-1.8744-.193,2.1655,2.1655,0,0,0-1.5841,1.3141,13.3571,13.3571,0,0,0-.6271,1.8349q-.3486,1.2274-.66,2.48t-.591,2.2317a3.7287,3.7287,0,0,1-.349.9976,23.713,23.713,0,0,1-2.5445.8369q-1.3443.363-2.5452.7621-.9908.2675-3.04.8945a30.1707,30.1707,0,0,1-4.4547.98,18.7727,18.7727,0,0,1-4.7384.1073,6.3013,6.3013,0,0,1-3.8182-1.6579q-.7057-1.0431-2.1194.0763a14.2093,14.2093,0,0,0,.4951,4.733,3.9285,3.9285,0,0,0,3.7513,3.2294,14.56,14.56,0,0,0,4.2831-.1694q2.7263-.4171,5.38-1.0731,2.6547-.6539,4.7073-1.2653,2.0518-.6091,2.4064-.7034a11.7515,11.7515,0,0,1-.4147,2.5058q-.4878,2.2226-1.29,5.4164-.8043,3.1894-1.75,6.85-.9465,3.655-1.79,6.8633-.8434,3.2037-1.4066,5.445t-.6336,2.6254a4.2293,4.2293,0,0,0,.22,2.065,3.36,3.36,0,0,0,1.0734,1.4758,2.9435,2.9435,0,0,0,1.713.601,4.1006,4.1006,0,0,0,2.1373-.5667,6.3043,6.3043,0,0,0,2.84-2.93q1.6956-3.297,3.3894-6.575c.2093-.4066.4068-.8077.6144-1.2135-.0387.2043-.0809.4076-.1194.6119a23.6889,23.6889,0,0,0-.4146,2.5058q-.1379,1.2372-.2725,2.5475a1.8331,1.8331,0,0,0,.7223,1.8788,6.0462,6.0462,0,0,0,2.287.87,4.177,4.177,0,0,0,2.7777-.7451q.1374-.7131.3118-1.4727.1726-.7595.3115-1.55a47.7714,47.7714,0,0,1,1.2871-4.9672q.8718-2.8266,1.9557-5.7885,1.0821-2.9662,2.2-5.84,1.1157-2.876,2.1294-5.2025,1.0113-2.3284,1.7466-3.7852a6.4174,6.4174,0,0,1,.9459-1.59,18.0608,18.0608,0,0,1-.6543,2.5193q-.6585,2.2077-1.4859,5.3366-.83,3.1255-1.6564,6.7373a63.6548,63.6548,0,0,0-1.1974,6.7182,20.4988,20.4988,0,0,0-.0329,5.3718q.3372,2.2659,1.7672,2.6512a.49.49,0,0,0,.3222.1239.4816.4816,0,0,1,.3219.1236,1.7156,1.7156,0,0,0,1.9211-.7929q.5648-.7367,1.0592-1.4218a8.5865,8.5865,0,0,0,.8442-1.4566q2.1046-4.25,4.1694-8.484c.0509-.105.1005-.2121.1514-.3171-.0364.1941-.0779.386-.1131.5807a20.78,20.78,0,0,0-.39,4.1308,4.5668,4.5668,0,0,0,.8486,3.12,4.733,4.733,0,0,0,2.5481,1.5187q2.076.5734,3.0512-1.9052.3465-.9372.94-2.3616.5906-1.4252,1.1482-2.7674t.9734-2.382c.2778-.6934.44-1.0966.4862-1.2131a3.1046,3.1046,0,0,1,.08.81,11.487,11.487,0,0,1-.058,1.2348q-.0649.6461-.1293,1.2508a8.4482,8.4482,0,0,0-.0615.92,2.4912,2.4912,0,0,0,1.0979,2.52q.6459.3347,1.2918.63a13.925,13.925,0,0,0,1.363.5388,3.3777,3.3777,0,0,0,2.5009.1008,4.7147,4.7147,0,0,0,1.83-2.2228q.2773-.6168.9738-2.1248.6941-1.5088,1.5272-3.4526t1.7662-4.1609c.27-.6408.5334-1.2662.7944-1.886-.4486,1.9109-.833,3.5784-1.1463,4.9711q-.54,2.4039-.6066,2.818a4.9187,4.9187,0,0,0,.2426,2.2287,3.7525,3.7525,0,0,0,1.0921,1.6079,2.8973,2.8973,0,0,0,1.7235.6757,3.8134,3.8134,0,0,0,2.136-.5754,6.35,6.35,0,0,0,2.815-3.108q1.6641-3.5209,3.3267-7.02,1.6611-3.5076,3.2489-6.9786a16.2,16.2,0,0,0,.5818-1.6073,4.3444,4.3444,0,0,0,.1524-1.6715,2.8782,2.8782,0,0,0-.081-.6349c-.051-.2051-.2436-.3507-.5766-.4347a5.6739,5.6739,0,0,0-1.1484,1.8249,12.8735,12.8735,0,0,1-.9335,1.932q-.5557,1.0275-1.0036,2.0251-.45,1-.9336,2.0046-.5569,1.0224-1.0771,1.9912t-1.0777,1.9868q-.5577,1.0173-1.0779,2.0222a12.6381,12.6381,0,0,1-1.5044,2.1913q.0593-.8195.0535-1.3036a2.8769,2.8769,0,0,1,.13-.9168q.13-.8349.6691-3.22.5366-2.3847,1.2426-5.464.7052-3.0817,1.51-6.5611.804-3.4841,1.5421-6.5553.7366-3.0735,1.2719-5.3718t.7373-3.0049a4.0542,4.0542,0,0,1,1.3385-.7591,30.8178,30.8178,0,0,1,2.9314-1.1382,23.6546,23.6546,0,0,1,3.2553-.8556,4.8048,4.8048,0,0,1,2.3812-.0059c.1431.0738.2742.1352.3939.1864a1.4235,1.4235,0,0,0,.3929.1045q.7863.291,1.2669-.7457a5.0083,5.0083,0,0,0,.4031-1.3918,10.1233,10.1233,0,0,0,.1128-1.73,10.3733,10.3733,0,0,0-.1716-1.7383A2.54,2.54,0,0,0,188.0347,109.5237Zm-63.1682,29.6279q-1.2182,5.6607-2.3409,11.3461a12.2235,12.2235,0,0,1-.68,1.2372q-.5646.964-1.0214,1.8987-.459.9369-.9513,1.8781-.566.9592-1.0945,1.8678t-1.0951,1.8632q-.5667.9541-1.0957,1.8958a12.1906,12.1906,0,0,1-1.523,2.0593q.0673-.762.0665-1.2117a2.5346,2.5346,0,0,1,.1391-.8537q.1384-.7774.7-3.0013.5593-2.224,1.2944-5.0962.7341-2.875,1.5719-6.1218.8368-3.2512,1.6035-6.1187.7655-2.8695,1.322-5.0156t.7652-2.8068a4.271,4.271,0,0,1,1.3426-.73c.8042-.3549,1.734-.7063,2.772-1.0547C126.0323,133.8484,125.4317,136.5064,124.8665,139.1516Z"/><path class="cls-1" d="M228.67,117.9836q.622-2.3811.8173-3.2168.86-2.84,1.6491-5.7125.7875-2.875,1.7167-5.7533,1.3926-4.3247,2.9989-8.55,1.6043-4.2351,3.6361-8.3489l-.0066-.2641a7.5523,7.5523,0,0,0-3.9191-3.3951,1.0349,1.0349,0,0,0-1.2613.7151q-.4066.8235-.7809,1.5007a15.4982,15.4982,0,0,0-.7107,1.4787q-1.0825,2.3294-2.3157,5.7862-1.2358,3.4518-2.495,7.4187-1.2618,3.9608-2.4845,8.1111-1.2253,4.1439-2.2814,7.88-1.0584,3.7314-1.9191,6.7521-.8619,3.0189-1.3232,4.7675-.13.6357-.3291,1.2858a5.7162,5.7162,0,0,1-.7537,1.47,58.2225,58.2225,0,0,1,.6468-8.0465,66.5977,66.5977,0,0,0,.7211-7.822q-.9365-.4532-1.8365-.915-.9015-.458-1.8339-.8223a1.2236,1.2236,0,0,0-1.3173-.0057,3.1705,3.1705,0,0,0-.7862,1.5749,6.6236,6.6236,0,0,0-.1235.8894,18.2267,18.2267,0,0,1-.6316,2.1748q-.57,1.7293-1.4112,4.1186-.8433,2.3868-1.8565,5.1071-1.0147,2.7174-1.8969,5.0085t-1.5289,3.8826q-.6481,1.5922-.7148,1.7758a3.3779,3.3779,0,0,0,.02-.81.9733.9733,0,0,1,.0264-.4727q1.1026-5.6021,2.1685-11.1752,1.064-5.5812,2.16-11.2384a30.0061,30.0061,0,0,0,.5426-8.2587q-.3011-4.2779-3.1717-5.7057-1.0747-.4682-2.1139-.9439a18.9509,18.9509,0,0,0-2.1814-.8316q-3.571-1.1073-6.8438,2.1716a24.392,24.392,0,0,0-7.0175,20.9988,7.2448,7.2448,0,0,0,2.8606,4.8576,7.1565,7.1565,0,0,0,2.55,1.1677,23.7019,23.7019,0,0,0,2.752.459.7625.7625,0,0,0,.7757-.4414.6618.6618,0,0,0,.098-.4858.688.688,0,0,0-.186-.4169,1.9387,1.9387,0,0,0-.4735-.5556,6.842,6.842,0,0,1-.5426-.4541,7.6552,7.6552,0,0,1-2.304-5.2887,21.6245,21.6245,0,0,1,1.7939-10.86,16.6476,16.6476,0,0,1,5.2039-6.6357,5.7045,5.7045,0,0,1,1.1946-.6674,1.4578,1.4578,0,0,1,1.2077.0066,3.91,3.91,0,0,1,.7438,1.7049,6.4024,6.4024,0,0,1,.0374,1.8992q-.111,1.643-.1847,3.2738a21.4306,21.4306,0,0,1-.3987,3.2426q-.7042,4.082-1.5156,8.0941-.8147,4.008-1.5915,8.0789-.5843,3.0087-1.17,6.01t-1.1714,6.0754a12.5566,12.5566,0,0,0-.3413,2.7656q-.0122,1.3473.0869,2.7532a3.7624,3.7624,0,0,0,2.0661,3.4209,2.7477,2.7477,0,0,0,1.7249.4318,14.6438,14.6438,0,0,0,1.9262-.2842,1.5222,1.5222,0,0,0,.913-.8724q.1334-.4514.27-.8208.1355-.367.27-.8208,1.28-3.9253,2.4907-7.7693,1.2086-3.85,2.4859-7.7315.201-.644.4019-1.2907a2.9536,2.9536,0,0,1,.76-1.2055l.0316,1.532q-.0558.7826-.1268,2.5094t-.105,3.5715q-.0339,1.8468-.0359,3.4692a20.3359,20.3359,0,0,0,.0828,2.2891,3.6608,3.6608,0,0,0,2.5774,3.5465,13.9935,13.9935,0,0,0,3.092.7115,26.4225,26.4225,0,0,0,3.2964.1607c.136-.3175.2607-.6021.3747-.8573a6.5439,6.5439,0,0,0,.3038-.8434q.0623-.3573.59-2.463.525-2.1054,1.282-5.091.7545-2.9872,1.6414-6.4943.8849-3.5093,1.6336-6.6938Q228.0458,120.3624,228.67,117.9836Z"/><path class="cls-1" d="M246.1021,110.1768a5.7248,5.7248,0,0,0-2.557-3.81,13.3851,13.3851,0,0,0-1.2992-.6455,2.938,2.938,0,0,1-1.1639-.944.926.926,0,0,0-.3973-.2079.8986.8986,0,0,0-.4634-.0131,7.7839,7.7839,0,0,0-1.1351.2055,4.5683,4.5683,0,0,0-1.1287.4692,8.2533,8.2533,0,0,0-3.2746,3.0916,29.7356,29.7356,0,0,0-2.727,5.2588,58.2745,58.2745,0,0,0-2.1367,6.2626q-.9241,3.2832-1.5708,6.1834t-.9548,5.1037a23.0589,23.0589,0,0,0-.2916,2.8965l.065,2.8579a10.6063,10.6063,0,0,0,.3687,2.0517,4.1544,4.1544,0,0,0,.9325,1.67,8.1852,8.1852,0,0,0,1.4276,1.3928,5.644,5.644,0,0,0,1.7746.8872q4.1893,1.5629,6.8662-3.3194.6172-1.1042,1.8074-3.6634,1.1877-2.5638,2.396-5.8083,1.206-3.249,2.2569-6.9214a43.5686,43.5686,0,0,0,1.4288-7.0272A17.7892,17.7892,0,0,0,246.1021,110.1768Zm-5.6029,17.2154a2.7654,2.7654,0,0,1-.1992.6213q-.47,1.26-1.2786,3.2548a29.7466,29.7466,0,0,1-1.84,3.7656,14.264,14.264,0,0,1-2.149,2.8947,2.07,2.07,0,0,1-2.2007.7443,33.4962,33.4962,0,0,1,.3139-7.92,73.3691,73.3691,0,0,1,1.7411-7.9177q.7321.7957,1.2861,1.5011a5.7762,5.7762,0,0,0,1.2069,1.1718,4.363,4.363,0,0,0,1.5547.7417,14.8744,14.8744,0,0,1,1.6928.5367C240.5839,126.9742,240.541,127.1769,240.4992,127.3922Zm3.0709-12.9346a37.1457,37.1457,0,0,1-.4988,4.3005q-.1275.6534-.29,1.2692-.1636.618-.2874,1.3563a1.995,1.995,0,0,1-1.39,1.5706,1.26,1.26,0,0,1-1.8016-.6366,7.575,7.575,0,0,1-.61-1.5791,4.8986,4.8986,0,0,1-.1171-1.8725q.0571-.5447.3116-1.8441.2529-1.299.6482-2.68a13.5032,13.5032,0,0,1,.9729-2.5007,2.6829,2.6829,0,0,1,1.2851-1.3859,1.5966,1.5966,0,0,1,.7088-.1779,2.915,2.915,0,0,0,.7113-.09A15.2094,15.2094,0,0,1,243.57,114.4576Z"/><path class="cls-1" d="M281.07,122.2813c-2.4187.5449-4.1265,3.3347-4.0288,6.6436.095,3.2166,1.8785,5.3359,4.3729,4.8077,2.5658-.5433,4.1281-3.3957,4.0288-6.6436C285.341,123.748,283.6312,121.7043,281.07,122.2813Z"/><path class="cls-1" d="M278.43,115.3661l4.8315-1.1315-.3623-44.736-6.7718,1.9457,1.0271,19.5929c-.2206-.2081-.4447-.4087-.6779-.59q-1.2417-.9679-2.2532.9652a24.3752,24.3752,0,0,0-1.5425,3.36q-.4611,1.3191-1.3756,4.2257-.9166,2.9034-2.0252,6.5332-1.1116,3.6251-2.2863,7.5251-1.1767,3.8949-2.2309,7.106-1.056,3.2081-1.7848,5.2841a6.2427,6.2427,0,0,1-.9434,2.1224q-.1114-1.4278-.04-4.0363t.0331-5.2814a43.7706,43.7706,0,0,0-.3122-4.8366q-.274-2.1607-1.0033-2.71-1.6746-1.1315-2.3788-.822-.7063.31-1.707,2.9075-.5346,1.3957-1.3635,3.76-.8315,2.3627-1.7287,4.87-.899,2.5032-1.6982,4.7528-.8,2.2479-1.2007,3.3227.2159-2.6478.7054-5.8571.4871-3.211,1.1155-6.5062.6263-3.2982,1.26-6.3817.6308-3.0837,1.2073-5.5769a9.0389,9.0389,0,0,1-1.4208-1.1267,6.2949,6.2949,0,0,0-1.418-1.032q-2.1042-1.3451-3.1594,1.887-.1317.4827-.2593,1.0065c-.0867.3512-.1721.7151-.2571,1.0951q-1.9536,10.0587-3.1185,20.4874a31.438,31.438,0,0,0-.2647,3.6665q-.0257,1.8321-.1208,3.7211a2.4862,2.4862,0,0,0,1.4245,2.5393q.7968.3631,1.5588.7346a13.976,13.976,0,0,0,1.5566.6493,2.514,2.514,0,0,0,2.294.0476,4.3964,4.3964,0,0,0,1.2947-2.5221q.3274-1.1495.9416-3.6679.6126-2.5188,2.0706-6.9074c.0545.29.0988.6095.1328.9625s.0541.6808.0621.9793q.1777,1.314.3212,2.6359t.3191,2.5479a3.3728,3.3728,0,0,0,1.9364,2.7438,11.1711,11.1711,0,0,0,3.3275,1.1461,7.9858,7.9858,0,0,0,3.574-.35q2.7126-10.5436,6.0907-21.2044,2.691-8.5593,5.73-16.8335Z"/></svg>
