<svg xmlns="http://www.w3.org/2000/svg" width="595.2419" height="328.0033" viewBox="0 0 595.2419 328.0033"><defs><style>.cls-1{fill:#333;}.cls-2{fill:#fff;}</style></defs><g id="Layer_2" data-name="Layer 2"><g id="INDEX_XG" data-name="INDEX XG"><path class="cls-1" d="M67.4316,128.5654a28.5827,28.5827,0,0,1,5.2364,8.8057,48.315,48.315,0,0,1,1.9038,11.979H47.7578q-1.4282-10.1514-9.6787-10.1543a9.7886,9.7886,0,0,0-6.5845,2.38,7.279,7.279,0,0,0-2.7763,5.7119q0,6.3478,9.0434,10.4717L50.7725,163.63q13.3271,6.0315,18.96,13.01,5.63,6.9837,5.6328,17.4532,0,15.2314-9.7578,23.7993T38.3965,226.46q-17.7716,0-28.0835-9.0434Q-.0025,208.373,0,192.9824v-3.49H27.1313q0,6.5076,2.9576,10.3921a9.5894,9.5894,0,0,0,8.0722,3.8877,10.3847,10.3847,0,0,0,7.5118-2.9356,9.6515,9.6515,0,0,0,3.0366-7.2192q0-6.82-11.3023-11.4238l-12.2593-5.0772a55.1,55.1,0,0,1-12.7348-7.457q-10.6692-8.5678-10.668-21.8955,0-13.1675,10.79-22.2129,10.7878-9.0439,26.3379-9.044Q57.4357,116.5068,67.4316,128.5654Z"/><path class="cls-1" d="M111.5391,224.3979H84.5664V118.57h26.9727Z"/><path class="cls-1" d="M165.4824,224.3979H138.51v-81.87H117.5664V118.57h68.8594v23.958H165.4824Z"/><path class="cls-1" d="M251.1592,224.3979H192.4541V118.57h58.7051v23.958H218.3159v16.1836h31.8916v23.958H218.3159V200.44h32.8433Z"/><path class="cls-1" d="M323.667,128.5654a28.58,28.58,0,0,1,5.2363,8.8057,48.31,48.31,0,0,1,1.9038,11.979H303.9932q-1.4283-10.1514-9.6787-10.1543a9.7886,9.7886,0,0,0-6.5845,2.38,7.2788,7.2788,0,0,0-2.7764,5.7119q0,6.3478,9.0435,10.4717l13.0107,5.8706q13.3272,6.0315,18.96,13.01,5.63,6.9837,5.6328,17.4532,0,15.2314-9.7578,23.7993t-27.211,8.5678q-17.7714,0-28.0835-9.0434-10.3153-9.044-10.3129-24.4346v-3.49h27.1313q0,6.5076,2.9575,10.3921a9.59,9.59,0,0,0,8.0723,3.8877,10.3847,10.3847,0,0,0,7.5117-2.9356,9.6511,9.6511,0,0,0,3.0366-7.2192q0-6.82-11.3022-11.4238l-12.2593-5.0772a55.1007,55.1007,0,0,1-12.7349-7.457q-10.6692-8.5678-10.6679-21.8955,0-13.1675,10.7895-22.2129,10.7879-9.0439,26.3379-9.044Q313.6712,116.5068,323.667,128.5654Z"/><path class="cls-1" d="M133.0073,105.8281H106.0347V0h26.9726Z"/><path class="cls-1" d="M216.145,105.8281H182.6675V0h32.5259q13.1675,0,19.5947,1.269a23.88,23.88,0,0,1,10.5513,4.6016q9.9952,7.935,9.9956,21.8955,0,14.2792-12.2168,21.4194,17.4513,5.8719,17.4526,24.5928,0,13.8033-9.6782,22.8472a30.6515,30.6515,0,0,1-12.8521,7.3779Q231.2173,105.8294,216.145,105.8281Zm-7.6157-81.87V40.3h9.52q11.4236,0,11.4238-8.3272,0-8.014-11.4238-8.0151Zm0,38.8726V81.87h12.6934q13.4838,0,13.4863-9.914,0-9.126-13.4863-9.1255Z"/><path class="cls-1" d="M269.1377,64.1V0H296.11V63.978q0,19.955,13.8037,19.9546,7.456,0,10.4716-4.4326,3.0125-4.4326,3.0147-15.522V0H350.373V64.1q0,21.5793-10.4716,32.3672-11.1072,11.4243-29.9873,11.4238-19.0394,0-30.146-11.2651a34.4347,34.4347,0,0,1-8.33-13.0894Q269.1364,76.6339,269.1377,64.1Z"/><path class="cls-1" d="M390.3564,105.8281H363.3838V0h26.9726Z"/><path class="cls-1" d="M462.5464,105.8281h-58.229V0H431.29V81.87h31.2564Z"/><path class="cls-1" d="M511.2549,105.8281H469.6855V0h35.54q21.1,0,33.3193,7.6157a44.0747,44.0747,0,0,1,12.8516,12.2168q9.6768,13.4883,9.6787,32.6851,0,24.1186-13.6445,38.7134Q533.7827,105.83,511.2549,105.8281Zm-14.5967-81.87V81.87H508.24q25.86,0,25.8623-28.562,0-14.0412-6.664-21.6973-6.6636-7.653-19.0391-7.6528Z"/><path class="cls-2" d="M394.5644,202.3469a5.73,5.73,0,0,0-5.2722-1.8619,24.4956,24.4956,0,0,0-6.479,1.7067,52.11,52.11,0,0,0-5.8623,2.83,11.3935,11.3935,0,0,1-3.4156,1.5453,14.0424,14.0424,0,0,1,.4-2.9552q.4175-1.9256.8332-3.94.4158-2.0122.6871-3.6447.272-1.629-.0311-1.89a3.8854,3.8854,0,0,1-.6868-.9269.7583.7583,0,0,0-.1548-.3007,1.5306,1.5306,0,0,1-.2285-.2811,3.8968,3.8968,0,0,0-.9085-.6885,4.5481,4.5481,0,0,0-3.967-.5054,4.5,4.5,0,0,0-3.3162,2.9216,31.01,31.01,0,0,0-1.28,4.1373q-.7072,2.77-1.3331,5.6-.6291,2.8314-1.1941,5.0385a8.5866,8.5866,0,0,1-.7124,2.25,46.4614,46.4614,0,0,1-5.3579,1.8107q-2.8324.7762-5.3611,1.64-2.0874.5724-6.4026,1.9238a58.88,58.88,0,0,1-9.3921,2.0675,36.8874,36.8874,0,0,1-10.0131.0735,13.3088,13.3088,0,0,1-8.1145-3.9065q-1.52-2.396-4.479.0943a34.9084,34.9084,0,0,0,1.169,10.7758q1.8734,6.9507,8.0131,7.4724a28.59,28.59,0,0,0,9.0488-.2364q5.7511-.855,11.3443-2.2532,5.5942-1.3943,9.9176-2.7133,4.3215-1.3137,5.0684-1.5154a28.129,28.129,0,0,1-.8134,5.67q-.9755,5.025-2.5921,12.2434c-.5,2.2269-1.0234,4.5392-1.5646,6.9195-.09.1446-.1911.2806-.279.4268q-.6583,1.1-1.2423,2.2625-2.039,4.4091-5.0271,10.5512-2.9931,6.1312-5.6946,11.7419-2.7073,5.6034-4.83,9.7019a34.553,34.553,0,0,1-2.4229,4.3294q.1381-.701,1.0724-4.1879.93-3.4855,2.1505-7.8862,1.2153-4.4038,2.5839-8.9388,1.3641-4.5346,2.2253-7.4467.2846-1.0812.571-2.1634a15.9527,15.9527,0,0,0,.4185-2.296,3.4934,3.4934,0,0,0-.64-2.8769,20.5579,20.5579,0,0,0-2.5828-2.4691q-1.3627-1.0855-2.7281-2.2547-2.2687-1.6048-4.329,1.2652a21.4486,21.4486,0,0,0-2.0513,3.6977q-2.9109,7.087-6.1288,13.6252-3.2236,6.5262-5.866,11.4706-3.2355,5.9054-6.183,10.8856-.0027-.162.8651-3.176t2.1707-7.2126q1.3024-4.2021,2.6791-8.4356,1.3743-4.23,2.3962-6.646,1.1657-2.7834,2.483-5.5235t2.7817-5.4469a21.5081,21.5081,0,0,1,4.2006-5.578,11.6434,11.6434,0,0,1,5.729-2.975,10.4017,10.4017,0,0,0,1.6411-.5892q.8933-.3953,1.9371-.8337a5.6991,5.6991,0,0,1-.393-1.33,1.311,1.311,0,0,0-.3854-.8266,21.3221,21.3221,0,0,0-1.6006-2.1073q-.8385-.9555-1.5979-1.9354-2.7368-3.3091-7.507-1.7127a18.9988,18.9988,0,0,0-6.832,4.2981,40.5122,40.5122,0,0,0-4.942,6.1865,65.2359,65.2359,0,0,0-3.89,6.8775,136.8348,136.8348,0,0,0-7.5788,19.7795l-.0024.0085q-2.3619,4.74-4.6274,9.3967-4.3389,8.8838-9.66,17.9287a12.809,12.809,0,0,1,.64-3.8122q.7946-3.1944,1.9541-7.7073,1.1565-4.5145,2.458-9.6469,1.2981-5.1345,2.5271-9.7769,1.2256-4.64,2.0158-8.12.7863-3.4766.9258-4.6622.2579-4.0065-1.8563-5.921-1.2132-1.32-2.4191-2.4817-1.2111-1.1556-2.5657-2.2706a4.6992,4.6992,0,0,0-5.0181-.8778,8.5619,8.5619,0,0,0-4.6725,4.2378q-.7364,1.4928-1.9815,4.2472-1.249,2.7555-2.6443,5.7027-1.3993,2.9454-2.6485,5.5233a24.4587,24.4587,0,0,1-1.9924,3.5659c.0932-.6675.1638-1.1935.2123-1.5834a7.1364,7.1364,0,0,1,.2156-1.1031q2.0177-9.3872,3.8854-18.6107c.0642-.318.1319-.6378.1963-.9559l.0211.0088a3.1,3.1,0,0,0,.8235.1858q1.6475.5357,2.6774-1.5206a9.58,9.58,0,0,0,.8732-2.7471,19.4805,19.4805,0,0,0-.06-6.7984,4.6616,4.6616,0,0,0-1.216-2.5064c-.09-.0937-.1864-.1741-.28-.26.2806-1.3166.5542-2.63.8393-3.9488q.5712-2.5918.7853-4.03a4.28,4.28,0,0,0-.1691-2.3062,3.8946,3.8946,0,0,0-1.3573-1.564,31.2746,31.2746,0,0,0-2.9229-1.7632,5.6439,5.6439,0,0,0-2.7653-.7477,6.147,6.147,0,0,0-3.3433,1.3558,44.81,44.81,0,0,0-1.3049,4.7172q-1.1268,4.5307-2.2089,9.0436c-1.7429.7346-3.3693,1.5066-4.8655,2.3224a12.1706,12.1706,0,0,1-3.4217,1.5014,12.3692,12.3692,0,0,1,.4285-2.7552q.4351-1.7985.87-3.6795.4344-1.8791.721-3.4024.2873-1.52-.0124-1.7566a3.4829,3.4829,0,0,1-.6759-.8486.6655.6655,0,0,0-.1514-.2766,1.3929,1.3929,0,0,1-.2251-.2569,3.7038,3.7038,0,0,0-.8993-.6225,4.7653,4.7653,0,0,0-3.9511-.392,4.5817,4.5817,0,0,0-3.3358,2.781,28.15,28.15,0,0,0-1.3174,3.87q-.7328,2.5882-1.385,5.2307-.6554,2.6433-1.2407,4.7052a7.8373,7.8373,0,0,1-.7328,2.1039,50.0135,50.0135,0,0,1-5.3616,1.7841q-2.8326.7752-5.3632,1.6252-2.0874.5713-6.4046,1.9088a63.6627,63.6627,0,0,1-9.3876,2.1,39.5925,39.5925,0,0,1-9.9873.2628,13.2474,13.2474,0,0,1-8.0523-3.4622q-1.491-2.191-4.4674.177a29.8784,29.8784,0,0,0,1.0555,9.9655q1.7971,6.4071,7.9154,6.774a30.6886,30.6886,0,0,0,9.0272-.3908q5.7457-.9,11.3381-2.3017,5.5936-1.3983,9.919-2.703,4.3234-1.3,5.07-1.5011a24.7383,24.7383,0,0,1-.8676,5.2822q-1.023,4.6857-2.7075,11.4194-1.6878,6.7236-3.6707,14.4429-1.9863,7.7077-3.7556,14.4729-1.77,6.7554-2.9509,11.4815-1.1813,4.7231-1.3292,5.5351a8.8992,8.8992,0,0,0,.468,4.3488,7.0469,7.0469,0,0,0,2.2659,3.1006,6.1922,6.1922,0,0,0,3.6114,1.2526,8.6647,8.6647,0,0,0,4.5034-1.2107,13.3344,13.3344,0,0,0,5.9789-6.1948q3.5657-6.9584,7.1275-13.8779c.4309-.84.851-1.6752,1.2785-2.5137-.078.4143-.1592.8278-.2368,1.2422a50.171,50.171,0,0,0-.8682,5.2819q-.2874,2.6079-.5681,5.3693-.2849,2.763,1.5272,3.9522a12.7229,12.7229,0,0,0,4.8221,1.8136,8.825,8.825,0,0,0,5.8521-1.5923q.2875-1.5026.6537-3.1053.362-1.6.653-3.2688a100.597,100.597,0,0,1,2.7-10.4741q1.8312-5.9612,4.1082-12.21,2.2743-6.2576,4.6238-12.3215,2.3449-6.0674,4.4763-10.977,2.1261-4.9116,3.6724-7.9869a13.5887,13.5887,0,0,1,1.99-3.3572,38.1353,38.1353,0,0,1-1.3736,5.3128q-1.3827,4.6551-3.1192,11.2533-1.7412,6.5907-3.4756,14.2058a134.34,134.34,0,0,0-2.508,14.1626,43.1916,43.1916,0,0,0-.0568,11.3177q.7169,4.7711,3.7311,5.5706a1.0272,1.0272,0,0,0,.68.2582,1.0118,1.0118,0,0,1,.6782.2577q2.2627.6449,4.047-1.6864,1.188-1.5562,2.229-3.004a18.1159,18.1159,0,0,0,1.7757-3.0758q4.4253-8.9709,8.7678-17.908c.1061-.2195.2108-.441.3168-.6606-.0757.4065-.1621.8083-.2353,1.2158a43.7564,43.7564,0,0,0-.8133,8.7062q-.1089,4.2855,1.7953,6.5663a9.94,9.94,0,0,0,5.3734,3.1785q4.377,1.19,6.4263-4.04.7281-1.9766,1.9748-4.9828,1.2414-3.0069,2.4135-5.84,1.1691-2.8332,2.0456-5.0266c.5842-1.4625.9245-2.3134,1.0227-2.5592a6.5532,6.5532,0,0,1,.1706,1.7051,24.2939,24.2939,0,0,1-.12,2.6026q-.1358,1.3614-.27,2.6354a17.7153,17.7153,0,0,0-.1275,1.9393,5.2327,5.2327,0,0,0,2.32,5.3006q1.3618.6981,2.7245,1.316a29.192,29.192,0,0,0,2.8731,1.1233q3.3235,1.1166,5.2706.1911,1.9422-.9258,3.8513-4.699.5832-1.3017,2.0477-4.4843,1.4595-3.1852,3.2107-7.2869,1.7492-4.1046,3.7136-8.7822c.5668-1.35,1.12-2.6684,1.668-3.9747q-1.4163,6.0619-2.403,10.4783-1.1328,5.0685-1.2723,5.9411a10.3477,10.3477,0,0,0,.5163,4.6935,7.862,7.862,0,0,0,2.3048,3.378,6.0909,6.0909,0,0,0,3.6332,1.4083,8.0561,8.0561,0,0,0,4.5006-1.2309A13.4353,13.4353,0,0,0,359.32,295.47q3.4993-7.4317,6.9957-14.8188,3.4933-7.4055,6.832-14.7311a34.4548,34.4548,0,0,0,1.2226-3.3918,9.1619,9.1619,0,0,0,.3174-3.5227,6.0043,6.0043,0,0,0-.1719-1.3361c-.1081-.4319-.5139-.7371-1.2161-.9109a12.0028,12.0028,0,0,0-2.4165,3.8552,27.1811,27.1811,0,0,1-1.9631,4.078q-1.1691,2.1692-2.1109,4.2754-.9462,2.1117-1.9631,4.2307-1.1716,2.1588-2.2654,4.2055-1.0968,2.0484-2.2669,4.1947-1.1733,2.1478-2.2673,4.2695a26.757,26.757,0,0,1-3.1659,4.63c.0818-1.152.12-2.0691.11-2.7477a6.063,6.063,0,0,1,.2725-1.9316q.2727-1.7609,1.4026-6.79,1.1262-5.0285,2.6076-11.5214,1.4788-6.4986,3.1683-13.8354,1.6875-7.3464,3.2365-13.822,1.5456-6.4812,2.6693-11.328,1.1208-4.8448,1.5472-6.3363.141-.3805,2.82-1.6116A65.08,65.08,0,0,1,378.89,218.15a50.2171,50.2171,0,0,1,6.8588-1.8325,10.1287,10.1287,0,0,1,5.0184-.0336c.3022.1537.5777.2819.83.3893a3.04,3.04,0,0,0,.8278.2168q1.6575.6058,2.6688-1.5834a10.5718,10.5718,0,0,0,.8468-2.9352,21.357,21.357,0,0,0,.2339-3.6468,21.7821,21.7821,0,0,0-.3655-3.66A5.3277,5.3277,0,0,0,394.5644,202.3469Zm-133.0678,62.96q-2.5595,11.958-4.9289,23.9656a25.8484,25.8484,0,0,1-1.4086,2.5659q-1.188,2.0352-2.1484,4.0082-.965,1.9779-2.0005,3.9637-1.19,2.0249-2.302,3.9431-1.1147,1.9226-2.3035,3.9347-1.192,2.0139-2.3047,4.0022a25.785,25.785,0,0,1-3.2051,4.35c.0932-1.0713.1406-1.9237.1374-2.5539a5.3428,5.3428,0,0,1,.2911-1.7995q.29-1.6385,1.4671-6.3283,1.1736-4.6891,2.7162-10.7456,1.54-6.0624,3.2981-12.9083,1.7563-6.8554,3.3656-12.9009,1.6059-6.0509,2.7745-10.5765,1.1658-4.5235,1.6058-5.919.1445-.3548,2.8281-1.5488c1.6927-.7537,3.64-1.5015,5.8243-2.243Q263.2857,256.9362,261.4966,265.3072Z"/><path class="cls-2" d="M480.2142,219.78q1.3071-5.02,1.7165-6.7837,1.8063-5.9895,3.4643-12.0507,1.6557-6.0646,3.6074-12.137,2.9268-9.1251,6.3039-18.0419,3.3729-8.939,7.6471-17.6248l-.0136-.5564a15.8235,15.8235,0,0,0-8.2655-7.1124,2.1893,2.1893,0,0,0-2.6568,1.5188q-.8558,1.74-1.643,3.17a32.5256,32.5256,0,0,0-1.4949,3.1219q-2.2773,4.9175-4.8695,12.2125-2.5985,7.2839-5.2448,15.653-2.6511,8.3562-5.22,17.1116-2.5743,8.742-4.7928,16.6222-2.2236,7.869-4.0311,14.2427-1.81,6.3675-2.7792,10.0566-.2719,1.34-.6911,2.7119a12.0856,12.0856,0,0,1-1.5854,3.1044,122.6914,122.6914,0,0,1,1.3476-16.9576,140.3765,140.3765,0,0,0,1.5047-16.4846q-1.9739-.9464-3.8718-1.91-1.9-.9567-3.8661-1.7149-1.8178-.7915-2.7761.0014a6.7,6.7,0,0,0-1.654,3.3244,13.982,13.982,0,0,0-.2584,1.8751,38.2449,38.2449,0,0,1-1.3271,4.588q-1.197,3.648-2.9658,8.6883-1.7723,5.0375-3.9022,10.777-2.1338,5.7345-3.9873,10.57-1.8558,4.8353-3.2146,8.1939-1.3629,3.36-1.5029,3.7476a7.0938,7.0938,0,0,0,.04-1.7065,2.05,2.05,0,0,1,.0552-.996q2.3118-11.8131,4.5476-23.5644,2.2308-11.7652,4.53-23.6944a63.2582,63.2582,0,0,0,1.1274-17.4033q-.6423-9.01-6.6953-11.99-2.2659-.9758-4.4568-1.968a39.9193,39.9193,0,0,0-4.5992-1.7312q-7.5277-2.298-14.419,4.6392a51.5127,51.5127,0,0,0-14.7466,44.3007,15.2019,15.2019,0,0,0,6.0382,10.208,15.0423,15.0423,0,0,0,5.3758,2.4343,50.05,50.05,0,0,0,5.8008.9421,1.6142,1.6142,0,0,0,1.6339-.938,1.3953,1.3953,0,0,0,.2058-1.0236,1.4418,1.4418,0,0,0-.3931-.8764,4.067,4.067,0,0,0-.9991-1.1669,14.672,14.672,0,0,1-1.1445-.9516q-4.2795-3.8625-4.8659-11.1183a45.6111,45.6111,0,0,1,3.7594-22.8949A35.2418,35.2418,0,0,1,424.94,186.17a12.11,12.11,0,0,1,2.5165-1.4177,3.076,3.076,0,0,1,2.5452.0036,8.1981,8.1981,0,0,1,1.5707,3.5832,13.4845,13.4845,0,0,1,.0822,4.0006q-.2308,3.4628-.3829,6.8992a45.1578,45.1578,0,0,1-.834,6.8351q-1.4755,8.6056-3.1779,17.065-1.7089,8.4508-3.337,17.0336-1.2267,6.3435-2.4547,12.6716-1.23,6.326-2.4563,12.81a26.5083,26.5083,0,0,0-.7134,5.8306q-.0229,2.8383.1885,5.7986a7.8946,7.8946,0,0,0,4.3606,7.1886,5.7772,5.7772,0,0,0,3.6361.8932,30.955,30.955,0,0,0,4.0581-.6158,3.2255,3.2255,0,0,0,1.9224-1.8474c.1867-.6341.3751-1.2127.5673-1.7312q.2844-.7752.5672-1.7323,2.69-8.2816,5.2334-16.3919,2.5384-8.1228,5.2231-16.3121.4226-1.3591.8444-2.7226a6.2589,6.2589,0,0,1,1.6-2.5476l.07,3.2272q-.1156,1.65-.2622,5.2878-.1472,3.6411-.2147,7.5254-.0678,3.8924-.0687,7.31a42.69,42.69,0,0,0,.18,4.8221q.5811,5.994,5.4379,7.4473a29.4124,29.4124,0,0,0,6.5168,1.4687,55.7578,55.7578,0,0,0,6.9468.3076c.2859-.6705.548-1.2716.7877-1.8107a13.8466,13.8466,0,0,0,.6387-1.7789q.13-.7546,1.2374-5.1953,1.1025-4.44,2.6913-10.7382,1.5838-6.3011,3.4464-13.6982,1.8582-7.4027,3.43-14.1183Q478.9035,224.7984,480.2142,219.78Z"/><path class="cls-2" d="M516.9342,203.1608a11.9947,11.9947,0,0,0-5.3946-8.0014,27.8383,27.8383,0,0,0-2.7389-1.347,6.1668,6.1668,0,0,1-2.4548-1.9774,1.9422,1.9422,0,0,0-.8375-.4331,1.8914,1.8914,0,0,0-.9762-.0238,16.4644,16.4644,0,0,0-2.3922.4451,9.6814,9.6814,0,0,0-2.3774.999,17.4956,17.4956,0,0,0-6.895,6.5461,62.94,62.94,0,0,0-5.7369,11.1057,123.193,123.193,0,0,0-4.491,13.2136q-1.9416,6.9268-3.2985,13.0429-1.36,6.1141-2.0023,10.7617a48.5714,48.5714,0,0,0-.609,6.1053l.1423,6.02a22.2328,22.2328,0,0,0,.781,4.3188,8.7164,8.7164,0,0,0,1.9676,3.5089,17.119,17.119,0,0,0,3.0113,2.92,11.8394,11.8394,0,0,0,3.7413,1.8517q8.8306,3.2527,14.462-7.0611,1.2986-2.3318,3.8018-7.7368,2.4977-5.4119,5.0382-12.2608,2.5354-6.8574,4.7429-14.605a92.033,92.033,0,0,0,2.9983-14.8195A37.432,37.432,0,0,0,516.9342,203.1608ZM505.1593,239.485a5.8534,5.8534,0,0,1-.4186,1.3108q-.9887,2.6587-2.6883,6.87a62.9286,62.9286,0,0,1-3.87,7.952,30.2124,30.2124,0,0,1-4.5225,6.1193q-2.3563,2.3769-4.6365,1.5906a70.6511,70.6511,0,0,1,.6467-16.6888,154.8575,154.8575,0,0,1,3.6545-16.6982q1.5441,1.6683,2.7125,3.15a12.0889,12.0889,0,0,0,2.5458,2.4564,9.1346,9.1346,0,0,0,3.2771,1.5467,31.0556,31.0556,0,0,1,3.5682,1.1145C505.3372,238.6031,505.2466,239.0314,505.1593,239.485Zm6.4478-27.2812a78.45,78.45,0,0,1-1.044,9.0647q-.2667,1.3788-.608,2.6772c-.2293.87-.4308,1.821-.603,2.8606q-.8315,2.8223-2.9261,3.3226-2.6844,1.0221-3.7981-1.323a15.945,15.945,0,0,1-1.2879-3.3212,10.3044,10.3044,0,0,1-.25-3.9429c.08-.7662.2983-2.059.6543-3.89q.5291-2.7384,1.36-5.6531a28.6021,28.6021,0,0,1,2.0456-5.2759,5.6856,5.6856,0,0,1,2.7056-2.9333,3.3716,3.3716,0,0,1,1.4933-.3818,6.1544,6.1544,0,0,0,1.4986-.1962A32.01,32.01,0,0,1,511.6071,212.2038Z"/><path class="cls-2" d="M594.4047,117.0767l-14.2668,4.1713,2.1966,41.2557c-.4641-.4347-.9387-.8464-1.4289-1.2241q-2.6186-2.0268-4.7464,2.0577a51.48,51.48,0,0,0-3.2445,7.0946q-.97,2.7844-2.8918,8.9168-1.9269,6.1269-4.2562,13.786-2.3367,7.6463-4.8051,15.8766-2.4718,8.2183-4.6883,14.995-2.2182,6.7687-3.7511,11.1515-1.5376,4.38-1.9847,4.4806-.2373-3.0057-.0907-8.503.1446-5.4947.06-11.1274a92.12,92.12,0,0,0-.6659-10.1869q-.5817-4.5487-2.1189-5.7-3.5306-2.3667-5.014-1.7075-1.4882.6621-3.5915,6.1441-1.1244,2.9459-2.8673,7.9365-1.7472,4.9853-3.633,10.277-1.8894,5.2836-3.57,10.0316-1.6806,4.7438-2.5243,7.0123.45-5.5808,1.4761-12.3474,1.0209-6.77,2.3389-13.7184,1.314-6.9556,2.6436-13.4578,1.3235-6.5019,2.5335-11.7606a18.9522,18.9522,0,0,1-2.9956-2.359,13.1484,13.1484,0,0,0-2.99-2.16q-4.4365-2.8115-6.6538,4.0076c-.1849.6781-.365,1.3864-.5451,2.1236q-.2731,1.11-.5393,2.3088-4.0991,21.21-6.5344,43.1936a66.1651,66.1651,0,0,0-.551,7.7274q-.0518,3.86-.248,7.8409-.0486,3.9477,3.0064,5.335,1.68.757,3.2857,1.533a29.286,29.286,0,0,0,3.2814,1.3518q3.2025,1.1889,4.8333.0771,1.63-1.11,2.7242-5.3275.6882-2.4243,1.977-7.7375,1.2861-5.3121,4.35-14.5733c.1155.61.21,1.2823.2816,2.0259q.1051,1.1181.1325,2.063.3765,2.766.6816,5.5507t.677,5.3642a7.0711,7.0711,0,0,0,4.0848,5.7617,23.4705,23.4705,0,0,0,7.0136,2.38,16.8619,16.8619,0,0,0,7.53-.7746q5.697-22.2423,12.7968-44.74,5.6561-18.0617,12.0452-35.5253l1.905,35.7774,10.1785-2.4363Z"/></g></g></svg>