<svg xmlns="http://www.w3.org/2000/svg" width="173.6855" height="16.6318" viewBox="0 0 173.6855 16.6318"><defs><style>.cls-1{fill:#fff;}</style></defs><g id="Layer_2" data-name="Layer 2"><g id="INDEX_XG" data-name="INDEX XG"><path class="cls-1" d="M5.4482,20.0039h-4.08V3.9961h4.08Z" transform="translate(-1.3682 -3.6836)"/><path class="cls-1" d="M19.752,5.5078a4.3243,4.3243,0,0,1,.7919,1.332,7.3121,7.3121,0,0,1,.2881,1.8116H16.7759Q16.56,7.1162,15.312,7.1152a1.48,1.48,0,0,0-.9961.36,1.1012,1.1012,0,0,0-.42.8642q0,.96,1.3677,1.584l1.9682.8877A7.78,7.78,0,0,1,20.1,12.7793a4.075,4.075,0,0,1,.8516,2.6406,4.5388,4.5388,0,0,1-1.4756,3.6A6.0315,6.0315,0,0,1,15.36,20.3154a6.2187,6.2187,0,0,1-4.2481-1.3681,4.6639,4.6639,0,0,1-1.56-3.6953v-.5284h4.104a2.5333,2.5333,0,0,0,.4472,1.5723,1.4526,1.4526,0,0,0,1.2212.5879A1.5681,1.5681,0,0,0,16.46,16.44a1.46,1.46,0,0,0,.4595-1.0918q0-1.0312-1.7095-1.7276l-1.8544-.7685a8.34,8.34,0,0,1-1.9263-1.128A4.062,4.062,0,0,1,9.8159,8.4121a4.2249,4.2249,0,0,1,1.6319-3.36,5.9931,5.9931,0,0,1,3.9843-1.3682A5.2956,5.2956,0,0,1,19.752,5.5078Z" transform="translate(-1.3682 -3.6836)"/><path class="cls-1" d="M27.8872,20.0039H24.1436V3.9961h5.2558l3.168,10.5352,3.168-10.5352h5.28V20.0039h-3.768L37.3916,7.98,33.9355,20.0039H31.2236L27.7676,7.98Z" transform="translate(-1.3682 -3.6836)"/><path class="cls-1" d="M55.0791,20.0039l-.7681-2.3281H48.7432l-.84,2.3281H43.5112L49.9189,3.9961h3.24l6.36,16.0078Zm-3.5283-11.04-1.68,5.4716H53.207Z" transform="translate(-1.3682 -3.6836)"/><path class="cls-1" d="M70.8711,20.0039h-8.88V3.9961h8.88V7.62H65.9028v2.4473h4.8243v3.624H65.9028V16.38h4.9683Z" transform="translate(-1.3682 -3.6836)"/><path class="cls-1" d="M83.2544,20.0039H74.4468V3.9961h4.08V16.38h4.7275Z" transform="translate(-1.3682 -3.6836)"/><path class="cls-1" d="M97.2466,20.0039H93.335V3.9961h5.0639a14.8485,14.8485,0,0,1,3.084.2393,4.2819,4.2819,0,0,1,1.8359.9121A5.4138,5.4138,0,0,1,105.2866,9.54a5.2031,5.2031,0,0,1-1.08,3.3477,4.5535,4.5535,0,0,1-2.9043,1.668l4.3443,5.4482h-4.68l-3.72-5.1846Zm0-12.3838v4.416h1.44q2.6639,0,2.6636-2.2441,0-2.1723-2.6157-2.1719Z" transform="translate(-1.3682 -3.6836)"/><path class="cls-1" d="M112.6787,20.0039h-4.08V3.9961h4.08Z" transform="translate(-1.3682 -3.6836)"/><path class="cls-1" d="M120.3345,20.0039,114.9824,3.9961h4.2241l3.24,11.2314,3.24-11.2314h4.2241l-5.3759,16.0078Z" transform="translate(-1.3682 -3.6836)"/><path class="cls-1" d="M141.1182,20.0039h-8.88V3.9961h8.88V7.62H136.15v2.4473h4.8242v3.624H136.15V16.38h4.9683Z" transform="translate(-1.3682 -3.6836)"/><path class="cls-1" d="M148.606,20.0039h-3.9117V3.9961h5.064a14.8485,14.8485,0,0,1,3.084.2393,4.2819,4.2819,0,0,1,1.8359.9121A5.4141,5.4141,0,0,1,156.646,9.54a5.2036,5.2036,0,0,1-1.08,3.3477,4.5537,4.5537,0,0,1-2.9043,1.668l4.3442,5.4482h-4.68l-3.72-5.1846Zm0-12.3838v4.416h1.44q2.6639,0,2.6636-2.2441,0-2.1723-2.6158-2.1719Z" transform="translate(-1.3682 -3.6836)"/><path class="cls-1" d="M170.6138,20.0039l-.7681-2.3281h-5.5679l-.84,2.3281h-4.3916l6.4077-16.0078h3.24l6.36,16.0078Zm-3.5284-11.04-1.68,5.4716h3.3359Z" transform="translate(-1.3682 -3.6836)"/></g></g></svg>