<svg xmlns="http://www.w3.org/2000/svg" width="144.0248" height="84.6816" viewBox="0 0 144.0248 84.6816"><defs><style>.cls-1{fill:#fff;}</style></defs><g id="Layer_2" data-name="Layer 2"><g id="MOBILE_PG2" data-name="MOBILE PG2"><path class="cls-1" d="M26.4805,45.9929a24.5563,24.5563,0,0,0,.1637-3.597,7.294,7.294,0,0,0-.7774-3.1659q-.9921-1.7034-2.0876-3.2472a10.3,10.3,0,0,0-2.6341-2.571,4.9138,4.9138,0,0,0-4.9033-.8417c-.3605.1168-.7309.2256-1.1122.3229q-.5725.1492-1.1115.3237a18.9851,18.9851,0,0,0-4.0124,2.0367,21.4864,21.4864,0,0,0-4.62,4.0293,23.8629,23.8629,0,0,0-3.8063,5.97A18.4827,18.4827,0,0,0,0,53.0494a4.2467,4.2467,0,0,0,.5361,2.1049A4.0474,4.0474,0,0,0,1.9086,56.65a3.293,3.293,0,0,0,1.9068.5053,4.2824,4.2824,0,0,0,2.2091-.7621,8.1988,8.1988,0,0,0-.3325-1.1843,11.225,11.225,0,0,1-.43-2.7159,13.69,13.69,0,0,1,2.5335-8.5576,14.2409,14.2409,0,0,1,2.4928-2.5859q1.3464-1.0742,2.6948-2.082a13.7027,13.7027,0,0,1,2.5257-1.45,12.2963,12.2963,0,0,1,2.5234-.7814,3.7752,3.7752,0,0,1,1.7788.0927,2.1829,2.1829,0,0,1,1.2339,1.1773A11.4392,11.4392,0,0,1,22.297,41.51a10.1758,10.1758,0,0,1,.04,3.8777q-.28,1.5281-.6567,3.0026a27.7628,27.7628,0,0,1-.9223,2.9106,26.2956,26.2956,0,0,1-7.7368,10.604c-.2677.2132-.5472.4177-.8366.61a1.5867,1.5867,0,0,1-.9679.27,1.1657,1.1657,0,0,0-.0323-.3249.7893.7893,0,0,1-.0326-.2506q.813-3.23,1.8954-6.4009,1.0822-3.1831,2.236-6.3363.61-1.515.8824-2.2671a2.2033,2.2033,0,0,0,.1732-1.1734,1.1549,1.1549,0,0,0-.6329-.7176q-.5353-.2937-1.6041-.9533a.4748.4748,0,0,1-.1675-.0627.5738.5738,0,0,0-.1675-.0625q-.87-.4868-2.2149.4267-.1368.3362-1.05,3.0348-.9144,2.6892-2.13,6.4674Q7.1571,57.9246,5.7787,62.2q-1.376,4.2529-2.58,7.9558Q1.997,73.8434,1.1974,76.3752q-.7987,2.526-.8648,2.8233-.2661,1.1249.664,1.4453.73.2187,1.4936.4318.7624.2157,1.493.366.9286.1868,1.1615-.0741a4.4168,4.4168,0,0,0,.5668-1.3424q.2-.62.6351-2.1251.4346-1.5075.9707-3.1868.5359-1.6829.9726-3.2053.437-1.524.639-2.1567a12.672,12.672,0,0,0,2.0669-.976q1.2017-.7133,2.4363-1.4006A17.3455,17.3455,0,0,0,15.737,65.442a29.8582,29.8582,0,0,0,7.12-8.74,44.7344,44.7344,0,0,0,2.3424-5.2A22.08,22.08,0,0,0,26.4805,45.9929Z"/><path class="cls-1" d="M41.5963,52.6278a15.7519,15.7519,0,0,0,.0015-5.4347,4.7719,4.7719,0,0,0-2.2614-3.4053,11.6436,11.6436,0,0,0-1.1962-.5494,2.5024,2.5024,0,0,1-1.06-.82.7955.7955,0,0,0-.3656-.1758.8661.8661,0,0,0-.4342.0027,7.7807,7.7807,0,0,0-1.0724.221,4.7426,4.7426,0,0,0-1.0748.4589,8.4471,8.4471,0,0,0-3.1706,2.8805,28.5375,28.5375,0,0,0-2.7162,4.7791,53.0848,53.0848,0,0,0-2.1832,5.6249q-.9586,2.9349-1.6437,5.5147-.6858,2.5763-1.0326,4.53a19.6615,19.6615,0,0,0-.3517,2.5642l-.0185,2.5281a8.9363,8.9363,0,0,0,.2856,1.8172,3.5426,3.5426,0,0,0,.8186,1.4844,7.26,7.26,0,0,0,1.2831,1.2494,5.2283,5.2283,0,0,0,1.618.81c2.5527.97,4.7048.0211,6.457-2.8811q.6069-.9861,1.792-3.28,1.1856-2.3034,2.4152-5.2338,1.2294-2.9416,2.3338-6.2792A40.0693,40.0693,0,0,0,41.5963,52.6278Zm-5.81,10.24a2.5606,2.5606,0,0,1-.2059.5608q-.4779,1.1359-1.294,2.9334a27.3,27.3,0,0,1-1.8277,3.3787,13.2628,13.2628,0,0,1-2.0819,2.5788,1.9966,1.9966,0,0,1-2.0626.6462,28.8828,28.8828,0,0,1,.528-7.0672,65.1324,65.1324,0,0,1,1.8623-7.0926q.6579.7058,1.1523,1.3333a4.9711,4.9711,0,0,0,1.0874,1.0434,3.9481,3.9481,0,0,0,1.4234.66,13.3454,13.3454,0,0,1,1.5576.4783C35.8787,62.49,35.8322,62.6728,35.7866,62.8676Zm3.2957-11.736A33.5356,33.5356,0,0,1,38.47,55.04q-.1407.5936-.3127,1.1532-.1737.5615-.314,1.2312a1.9394,1.9394,0,0,1-1.3469,1.4319q-1.203.4419-1.6579-.56a6.3683,6.3683,0,0,1-.5177-1.4169,4.2367,4.2367,0,0,1-.0492-1.6846c.0476-.3275.1645-.8817.3512-1.6665q.2779-1.1749.6924-2.4287a12.7355,12.7355,0,0,1,.9926-2.2781,2.6923,2.6923,0,0,1,1.2489-1.2821,1.5875,1.5875,0,0,1,.6695-.1771,2.8822,2.8822,0,0,0,.6687-.0975A13.23,13.23,0,0,1,39.0823,51.1316Z"/><path class="cls-1" d="M61.3863,45.1329a8.2808,8.2808,0,0,0,.4328-1.8933q.0814-.87.0987-1.8089a7.4094,7.4094,0,0,0-.419-2.731q-.4462-1.1917-.9586-2.4047a.6433.6433,0,0,0-.4267-.3877,2.1121,2.1121,0,0,0-.6327-.0767,2.2721,2.2721,0,0,0-1.8877,1.1156q-.3414.432-1.2654,1.9-.9242,1.4649-1.9508,3.1161-1.0263,1.6458-1.9486,3.1307-.9228,1.4817-1.1947,1.8809.3509-1.2462.5647-2.0884.212-.8409.3565-1.5422-.39-.6409-.7481-1.2472-.3585-.604-.6833-1.1769a5.7139,5.7139,0,0,0-.4236-.6668c-.1534-.2044-.3173-.419-.4911-.6462a.7645.7645,0,0,0-.8649-.2528,1.48,1.48,0,0,0-.8784.7358,4.7135,4.7135,0,0,0-.6193,1.3161,16.7778,16.7778,0,0,0-.8382,2.6763L40.1218,66.9945a9.0962,9.0962,0,0,0-.2435.9333,9.4208,9.4208,0,0,1-.2439.9323,4.3741,4.3741,0,0,0-.09,1.9822,3.5677,3.5677,0,0,0,.58,1.33,2.6751,2.6751,0,0,0,.8192.7655c.2847.16.4709.2592.5592.295a1.9416,1.9416,0,0,0,.9881.4166,1.2839,1.2839,0,0,0,.7636-.1451,1.9255,1.9255,0,0,0,.5027-.42,1.5791,1.5791,0,0,0,.27-.4165q.9591-2.38,1.62-4.6318.66-2.2551,1.5582-4.7359Q48.585,59.64,50.1,56.08q1.5151-3.5754,3.235-7.1527c.0445-.0661.2155-.3454.5123-.8355s.6151-1.0155.9574-1.5757.6839-1.1059,1.0254-1.6411.5573-.8689.6492-1.0056a16.1,16.1,0,0,1-.3589,1.6q-.2849,1.0772-.6011,2.1594t-.5985,2.0284c-.1877.63-.306,1.063-.3531,1.2957a4.2379,4.2379,0,0,0,.48,3.3061,5.5286,5.5286,0,0,0,.6854.7589,1.5523,1.5523,0,0,0,.9565.4485,1.5845,1.5845,0,0,0,1.1372-.4729A5.0444,5.0444,0,0,0,58.9908,52.91q.6312-1.9217,1.1966-3.8783T61.3863,45.1329Z"/><path class="cls-1" d="M103.5732,30.912a5.9337,5.9337,0,0,0-2.1862-4.1,11.34,11.34,0,0,0-1.18-.7022,2.7142,2.7142,0,0,1-1.0391-1.0149.7841.7841,0,0,0-.36-.2244.7349.7349,0,0,0-.432-.0181,6.5789,6.5789,0,0,0-1.0708.207,4.1947,4.1947,0,0,0-1.0778.4868,8.6406,8.6406,0,0,0-3.209,3.2347,34.3005,34.3005,0,0,0-2.7944,5.5016,68.01,68.01,0,0,0-2.2816,6.5347c-.0241.0813-.0434.1558-.0672.2368a3.0319,3.0319,0,0,0-.1789.3233,6.6414,6.6414,0,0,1-.3813.6822q-.5549.9507-1.0743,1.9353-.5212.9848-1.14,1.9419a11.673,11.673,0,0,1-3.8757,4.1348q-.1188-.6852-.2352-1.3732a5.2905,5.2905,0,0,0-.371-1.25,5.0743,5.0743,0,0,1-.3768-2.4916,12.9886,12.9886,0,0,1,.5557-2.6295q.6471-2.2112,1.1931-4.3615.5465-2.1523,1.2587-4.2218.7826-2.2722,1.5019-4.5816A16.0734,16.0734,0,0,1,86.85,24.8311a2.7506,2.7506,0,0,0,.3929-2.5509,5.544,5.544,0,0,0-.3152-.81c-.1274-.2628-.2548-.5246-.3822-.7884q-.7683-1.3915-1.5023-1.4379a1.8619,1.8619,0,0,0-1.1136.4942c-.012-.017-.0183-.0424-.0308-.0588a2.3069,2.3069,0,0,0-2.3157-.9913,9.99,9.99,0,0,0-2.9246.8526,22.95,22.95,0,0,0-2.6694,1.433,4.9578,4.9578,0,0,1-1.5529.78,8.29,8.29,0,0,1,.2312-1.5145q.2208-.9881.4427-2.02t.3727-1.87q.1508-.8361.02-.9705a1.9091,1.9091,0,0,1-.291-.4762.3979.3979,0,0,0-.064-.1546.7606.7606,0,0,1-.0973-.144,1.7062,1.7062,0,0,0-.3944-.3549,1.7985,1.7985,0,0,0-1.7688-.2566,2.2361,2.2361,0,0,0-1.536,1.4964,17.9286,17.9286,0,0,0-.6443,2.1139q-.3629,1.4142-.6912,2.8577t-.6178,2.5682a4.854,4.854,0,0,1-.3566,1.1442,19.4379,19.4379,0,0,1-2.4233.9044q-1.2777.3858-2.4215.8168-.9419.2842-2.8923.9571a24.3171,24.3171,0,0,1-4.2307,1.0246,14.87,14.87,0,0,1-4.4838.03,5.5946,5.5946,0,0,1-3.588-1.9367q-.6519-1.1875-2.0112.0595a18.9893,18.9893,0,0,0,.3944,5.346q.7546,3.4539,3.4914,3.7316a11.48,11.48,0,0,0,4.0432-.0818,48.3,48.3,0,0,0,5.0934-1.0729q2.5152-.6715,4.4622-1.3116,1.9464-.6375,2.2826-.7348a16.3883,16.3883,0,0,1-.454,2.875q-.5145,2.5448-1.3473,6.1915-.8331,3.6384-1.8054,7.8035-.9712,4.1521-1.8325,7.788-.86,3.6273-1.4336,6.1606-.5736,2.53-.6477,2.9669a5.97,5.97,0,0,0,.1584,2.3775,4.1883,4.1883,0,0,0,.9625,1.7609,2.5781,2.5781,0,0,0,1.5738.8057,3.1179,3.1179,0,0,0,1.994-.5039,6.3162,6.3162,0,0,0,2.7058-3.182q1.6591-3.6934,3.3211-7.3812c.6338-1.4111,1.2449-2.8147,1.8647-4.2211-.4148,2.3317-.8256,4.6564-1.223,6.9548q-.7108,4.1024-1.3207,8.2954a40.6107,40.6107,0,0,0-.5133,4.2994q-.14,2.1479-.1825,4.3224A6.6487,6.6487,0,0,0,69.5867,83.27a4.0024,4.0024,0,0,0,3.1026,1.4115l.9912-.1462a11.1432,11.1432,0,0,0,1.8122-3.18q.6631-1.7821,1.2931-3.4766A82.33,82.33,0,0,0,81.406,53.87q.6117-.6715,1.1212-1.2332T83.58,51.5047a23.1881,23.1881,0,0,0,2.3362-3.0531c-.3511,1.52-.6317,2.8952-.8348,4.1118a27.1272,27.1272,0,0,0-.4006,3.0157l-.0682,2.9864a12.49,12.49,0,0,0,.2488,2.1577,4.5539,4.5539,0,0,0,.7863,1.783,8.2,8.2,0,0,0,1.2538,1.52,5.0657,5.0657,0,0,0,1.5962,1.012c2.5246,1.23,4.6873.1829,6.4885-3.1729q.6236-1.1388,1.8477-3.794,1.2248-2.6644,2.5046-6.06,1.28-3.4069,2.4421-7.28a53.2218,53.2218,0,0,0,1.6892-7.4472A21.7142,21.7142,0,0,0,103.5732,30.912ZM70.3677,53.6126q-.4539,1.0592-.9372,2.12-.553,1.0777-1.0687,2.097-.5175,1.0206-1.0676,2.087-.552,1.0664-1.0673,2.12A13.4109,13.4109,0,0,1,64.76,64.3133c.054-.5815.0858-1.0458.0921-1.39a3.4852,3.4852,0,0,1,.1505-.9743q.1479-.8883.7259-3.4168.5777-2.5315,1.3368-5.8048.7593-3.2811,1.6283-6.992.87-3.7217,1.6666-7.0093.7965-3.2926,1.38-5.7606t.7979-3.2293a3.8621,3.8621,0,0,1,1.2839-.8047,27.56,27.56,0,0,1,2.7939-1.1975,20.192,20.192,0,0,1,3.0875-.8892c.0554-.0111.1015-.0147.1554-.0245q-1.0613,3.3353-2.0982,6.6767-1.1793,3.8052-2.3234,7.6184-.3559,1.059-.7415,2.076A6.5212,6.5212,0,0,1,73.56,45.0949a7.2878,7.2878,0,0,0-1.537,5.02,14.8636,14.8636,0,0,1-.65,1.3528Q70.8185,52.5555,70.3677,53.6126Zm8.5309,2.7639a55.264,55.264,0,0,1-.8053,9.75,53.9707,53.9707,0,0,1-2.5794,9.49q-.4869,1.14-.9677,2.1a.2928.2928,0,0,1-.2.1213.6976.6976,0,0,0-.3349.2308,19.7492,19.7492,0,0,1,.1988-3.2422q.2307-1.58.4607-3.1156.531-3.3546,1.13-6.6428.5983-3.2952,1.1965-6.5122a22.4879,22.4879,0,0,1,.8633-3.1937.3868.3868,0,0,1,.2054-.3111,1.0976,1.0976,0,0,1,.3347-.1619c.1773-.039.33.0753.457.3432a2.2584,2.2584,0,0,1,.0538.5656Zm18.5949-7.31a3.3057,3.3057,0,0,1-.2156.651q-.4976,1.3167-1.3443,3.3989a33.5911,33.5911,0,0,1-1.8848,3.9066,15.027,15.027,0,0,1-2.1233,2.9609q-1.0871,1.1342-2.0672.6878a39.9872,39.9872,0,0,1,.6626-8.3106q.759-4.0523,1.9909-8.28.6414.8588,1.1214,1.6182a5.6336,5.6336,0,0,0,1.0626,1.2726,3.804,3.804,0,0,0,1.4047.8336,12.1637,12.1637,0,0,1,1.5418.6241C97.5924,48.626,97.5426,48.8392,97.4935,49.0663ZM100.9961,35.42a45.4743,45.4743,0,0,1-.6832,4.561q-.1512.6909-.333,1.3408-.1834.6519-.3358,1.4325-.4344,1.41-1.368,1.6265a1.1054,1.1054,0,0,1-1.64-.7273,8.5642,8.5642,0,0,1-.4884-1.6878,5.8758,5.8758,0,0,1-.0169-1.9832c.0536-.383.18-1.03.3813-1.9444q.299-1.3692.7353-2.8246a16.001,16.001,0,0,1,1.0309-2.6324,2.84,2.84,0,0,1,1.2669-1.4487,1.3629,1.3629,0,0,1,.67-.1772,2.4311,2.4311,0,0,0,.6671-.0835A18.3354,18.3354,0,0,1,100.9961,35.42Z"/><path class="cls-1" d="M127.3254,15.1589a35.3992,35.3992,0,0,0,1.7331-4.4167q.6655-2.1345,1.2627-4.2036a2.6368,2.6368,0,0,0,.1291-.9357,1.2248,1.2248,0,0,0-.1457-.6526q-.6414-.7977-1.2843-1.5454a10.336,10.336,0,0,0-1.3587-1.313q-.3217-.3925-.7986-.0468a1.9719,1.9719,0,0,0-.6969,1.0068q-.6574,1.88-1.2133,3.7216t-1.1439,3.6848a1.8868,1.8868,0,0,0,.34,1.9632A14.9526,14.9526,0,0,0,127.3254,15.1589Z"/><path class="cls-1" d="M143.8632,20.3277a6.8311,6.8311,0,0,0-2.1374-4.5515,11.42,11.42,0,0,0-1.169-.8016,2.916,2.916,0,0,1-1.0253-1.1414.7958.7958,0,0,0-.3569-.256.6716.6716,0,0,0-.43-.0316,5.9742,5.9742,0,0,0-1.07.1979,3.9241,3.9241,0,0,0-1.08.5049,8.854,8.854,0,0,0-3.234,3.4651,38.4838,38.4838,0,0,0-2.8452,5.9712q-1.3011,3.3831-2.3457,7.1261-1.0457,3.738-1.8086,7.0394c-.4264,1.84-.7646,3.4865-1.0242,4.961-.692,1.81-1.3122,3.3654-1.8511,4.6318q-.926,2.1694-1.6279,3.5429a18.7429,18.7429,0,0,1-1.22,2.1155,6.93,6.93,0,0,1-.9254,1.1174,2.5021,2.5021,0,0,1-.0369-.9712q.1206-1.882.5667-4.62.4446-2.74,1.0327-5.7631.587-3.0254,1.2434-6.1292.6563-3.1061,1.2336-5.7112t.999-4.4917q.4218-1.8861.5717-2.4194a2.7683,2.7683,0,0,0-.3806-2.7588q-.3213-.4051-.9267-1.224a4.4286,4.4286,0,0,0-1.2925-1.2145,1.131,1.131,0,0,0-1.3323.0775q-.6468.4724-1.0449,2.73-.2186.6452-.9681,3.5275-.75,2.8776-1.66,6.8014c-.23.9876-.4559,2.013-.6806,3.0576q-1.8067,4.8234-3.2583,8.242-1.9528,4.5807-3.2491,7.2037a29.8454,29.8454,0,0,1-2.0539,3.68q-.7575,1.0624-.9537,1.0057a24.8984,24.8984,0,0,1,.66-3.5655q.7193-3.2986,1.818-8.2735,1.1-4.99,2.4651-11.0355,1.3674-6.0667,2.6961-11.829,1.33-5.78,2.4677-10.5236,1.1385-4.7551,1.74-7.0829-.4515-.535-.8675-1.132-.4174-.5929-.8681-1.1253-.9075-.9616-1.586-.5491a4.7549,4.7549,0,0,0-1.4007,2.28,23.0608,23.0608,0,0,0-.8039,2.4636q-.15.5277-1.0138,4.0058-.8652,3.4706-2.1046,8.513-1.2378,5.0249-2.63,10.9141-1.3907,5.8671-2.563,11.2141-1.1718,5.3326-1.9807,9.61a44.05,44.05,0,0,0-.8589,6.161,8.56,8.56,0,0,0,.8407,4.4465,5.4225,5.4225,0,0,0,2.5461,2.3494c.8314.159,1.7164-.3872,2.6544-1.6475a29.4062,29.4062,0,0,0,2.8476-4.9658q1.4418-3.0814,2.8405-6.8552c.1832-.4954.3466-.9742.5228-1.4637-.064.5994-.1224,1.1931-.1684,1.7739a34.0589,34.0589,0,0,0,.0658,6.9031q.376,2.9762,1.87,3.8574a7.7717,7.7717,0,0,1,.8777.4664,2.9729,2.9729,0,0,0,.88.3713,2.091,2.091,0,0,0,1.72-.1257,4.5582,4.5582,0,0,0,1.3781-1.9291q.71-1.7085,1.43-3.6255.7881-2.03,1.4447-4.0441c.0692-.2124.1467-.4272.2181-.64l-.003.1007a15.116,15.116,0,0,0,.2248,2.379,5.3323,5.3323,0,0,0,.7652,1.9772,8.9993,8.9993,0,0,0,1.2348,1.6964,5.0829,5.0829,0,0,0,1.582,1.143c2.5064,1.398,4.6758.2882,6.509-3.3626q.6344-1.2381,1.8839-4.1282,1.25-2.8992,2.5629-6.5977,1.3124-3.7093,2.5123-7.93a62.803,62.803,0,0,0,1.7626-8.1247A26.121,26.121,0,0,0,143.8632,20.3277ZM137.609,40.0941a3.8421,3.8421,0,0,1-.222.71q-.51,1.4341-1.3771,3.7015a38.1576,38.1576,0,0,1-1.9219,4.25,16.3309,16.3309,0,0,1-2.15,3.2092q-1.0969,1.2246-2.07.7149a48.1835,48.1835,0,0,1,.75-9.1189q.8008-4.4361,2.0746-9.0526.6306.9583,1.1013,1.8034a6.1939,6.1939,0,0,0,1.0465,1.4215,3.8,3.8,0,0,0,1.3924.9466,11.7139,11.7139,0,0,1,1.5316.7189C137.7123,39.6132,137.66,39.846,137.609,40.0941Zm3.637-14.8881q-.25,2.5173-.7292,4.9855-.1581.754-.3462,1.4627-.19.7107-.35,1.5635-.4481,1.5364-1.3817,1.7529-1.2078.4883-1.628-.8357a10.2291,10.2291,0,0,1-.4693-1.8639,7.0889,7.0889,0,0,1,.0041-2.1773c.0575-.4192.1909-1.126.4008-2.1252q.3128-1.4955.7631-3.0819a18.3654,18.3654,0,0,1,1.0559-2.8627,2.9605,2.9605,0,0,1,1.2786-1.557,1.2491,1.2491,0,0,1,.67-.1773,2.1988,2.1988,0,0,0,.6661-.0745A22.1182,22.1182,0,0,1,141.246,25.206Z"/></g></g></svg>