<svg xmlns="http://www.w3.org/2000/svg" width="238.6997" height="114.4771" viewBox="0 0 238.6997 114.4771"><defs><style>.cls-1{fill:#fff;}.cls-2{fill:#333;}</style></defs><g id="Layer_2" data-name="Layer 2"><g id="INDEX_XG" data-name="INDEX XG"><path class="cls-1" d="M10.56,69.5029H2.7358V37.4868H13.2q6.9588,0,9.84,2.4a10.4759,10.4759,0,0,1,3.7442,8.4961,10.7917,10.7917,0,0,1-3.36,8.3042q-2.9764,2.784-9.36,2.7837H10.56Zm0-24.768v7.4882h3.312q5.0874,0,5.0879-3.72,0-3.7675-5.4239-3.768Z" transform="translate(-2.7358 -5.5259)"/><path class="cls-1" d="M45.9351,70.127a16.3633,16.3633,0,0,1-11.9517-4.7759,15.8861,15.8861,0,0,1-4.8481-11.7842A16.1244,16.1244,0,0,1,33.959,41.6631a16.304,16.304,0,0,1,11.9761-4.8A16.5826,16.5826,0,0,1,58.0073,41.687a15.9294,15.9294,0,0,1,4.92,11.832,15.8505,15.8505,0,0,1-4.92,11.8081A16.6265,16.6265,0,0,1,45.9351,70.127Zm.0962-26.0162a8.18,8.18,0,0,0-6.24,2.6748,9.3574,9.3574,0,0,0-2.4961,6.6373,9.5178,9.5178,0,0,0,2.52,6.7583,8.2778,8.2778,0,0,0,6.3121,2.6977,8.0432,8.0432,0,0,0,6.144-2.6977,9.3809,9.3809,0,0,0,2.4961-6.6143,9.5376,9.5376,0,0,0-2.52-6.7334A8.1348,8.1348,0,0,0,46.0313,44.1108Z" transform="translate(-2.7358 -5.5259)"/><path class="cls-1" d="M74.8306,69.5029H67.0063V37.4868h10.128a29.6166,29.6166,0,0,1,6.1684.48,8.558,8.558,0,0,1,3.6719,1.8242,10.8233,10.8233,0,0,1,3.936,8.7837,10.4089,10.4089,0,0,1-2.16,6.6963,9.1052,9.1052,0,0,1-5.8081,3.3359l8.688,10.896h-9.36l-7.44-10.3681Zm0-24.768v8.832h2.88q5.3284,0,5.3282-4.4873,0-4.3447-5.232-4.3447Z" transform="translate(-2.7358 -5.5259)"/><path class="cls-1" d="M107.2305,69.5029H99.07V44.7349H92.7344V37.4868h20.832v7.2481h-6.3359Z" transform="translate(-2.7358 -5.5259)"/><path class="cls-1" d="M124.4141,69.5029H116.59V37.4868h17.4722v7.2481h-9.6484V50.063h9.3125v7.248h-9.3125Z" transform="translate(-2.7358 -5.5259)"/><path class="cls-1" d="M153.3574,70.127a16.3644,16.3644,0,0,1-11.9521-4.7759,15.8876,15.8876,0,0,1-4.8477-11.7842,16.1237,16.1237,0,0,1,4.8233-11.9038,16.3058,16.3058,0,0,1,11.9765-4.8A16.5845,16.5845,0,0,1,165.43,41.687a15.9312,15.9312,0,0,1,4.92,11.832,15.8524,15.8524,0,0,1-4.92,11.8081A16.6283,16.6283,0,0,1,153.3574,70.127Zm.0957-26.0162a8.1807,8.1807,0,0,0-6.24,2.6748,9.357,9.357,0,0,0-2.4961,6.6373,9.5178,9.5178,0,0,0,2.52,6.7583,8.2767,8.2767,0,0,0,6.3115,2.6977,8.0443,8.0443,0,0,0,6.1446-2.6977,9.3835,9.3835,0,0,0,2.4961-6.6143,9.5355,9.5355,0,0,0-2.5206-6.7334A8.1345,8.1345,0,0,0,153.4531,44.1108Z" transform="translate(-2.7358 -5.5259)"/><path class="cls-1" d="M192.0449,69.5029H174.4287V37.4868h8.16V62.2549h9.456Z" transform="translate(-2.7358 -5.5259)"/><path class="cls-1" d="M203.5645,69.5029h-8.16V37.4868h8.16Z" transform="translate(-2.7358 -5.5259)"/><path class="cls-1" d="M224.4434,70.127a16.3621,16.3621,0,0,1-11.9512-4.7759,15.8846,15.8846,0,0,1-4.8486-11.7842,16.1248,16.1248,0,0,1,4.8242-11.9038,16.302,16.302,0,0,1,11.9756-4.8,16.581,16.581,0,0,1,12.0722,4.8242,15.9275,15.9275,0,0,1,4.92,11.832,15.8487,15.8487,0,0,1-4.92,11.8081A16.6249,16.6249,0,0,1,224.4434,70.127Zm.0966-26.0162a8.1792,8.1792,0,0,0-6.24,2.6748,9.357,9.357,0,0,0-2.4961,6.6373,9.5175,9.5175,0,0,0,2.52,6.7583,8.2788,8.2788,0,0,0,6.3125,2.6977,8.0422,8.0422,0,0,0,6.1436-2.6977,9.3787,9.3787,0,0,0,2.4961-6.6143,9.5394,9.5394,0,0,0-2.5195-6.7334A8.1349,8.1349,0,0,0,224.54,44.1108Z" transform="translate(-2.7358 -5.5259)"/><path class="cls-2" d="M80.17,21.2578v-4.896h14.22q.0711,1.1529.0718,1.2241A12.6077,12.6077,0,0,1,81.61,30.4736,12.3281,12.3281,0,0,1,72.5923,26.82a12.061,12.061,0,0,1-3.69-8.91A11.7439,11.7439,0,0,1,72.61,9.09,13.2182,13.2182,0,0,1,89.2783,7.9561a10.9275,10.9275,0,0,1,4.4282,6.1015H86.8306a5.5967,5.5967,0,0,0-5.2564-3.0957,6.2653,6.2653,0,0,0-4.68,1.9214,6.5935,6.5935,0,0,0-1.872,4.7935A7.583,7.583,0,0,0,76.93,23.0635,6.6082,6.6082,0,0,0,82.0063,25.11a5.7185,5.7185,0,0,0,3.438-1.0259,4.7175,4.7175,0,0,0,1.854-2.8262Z" transform="translate(-2.7358 -5.5259)"/><path class="cls-2" d="M109.1143,30.4736a12.2735,12.2735,0,0,1-8.9639-3.5815,11.9167,11.9167,0,0,1-3.6362-8.8384,12.0923,12.0923,0,0,1,3.6181-8.9277,12.2266,12.2266,0,0,1,8.982-3.6,12.4381,12.4381,0,0,1,9.0542,3.6181,11.9486,11.9486,0,0,1,3.69,8.8741,11.8892,11.8892,0,0,1-3.69,8.8559A12.4713,12.4713,0,0,1,109.1143,30.4736Zm.0717-19.5117a6.1363,6.1363,0,0,0-4.68,2.0059,7.0162,7.0162,0,0,0-1.872,4.978,7.1369,7.1369,0,0,0,1.89,5.0688,6.2069,6.2069,0,0,0,4.7339,2.0235,6.0323,6.0323,0,0,0,4.6079-2.0235,7.0372,7.0372,0,0,0,1.8721-4.9609,7.151,7.151,0,0,0-1.89-5.05A6.1005,6.1005,0,0,0,109.186,10.9619Z" transform="translate(-2.7358 -5.5259)"/><path class="cls-2" d="M142.9893,30.0059h-6.12V11.43h-4.7519V5.9937h15.624V11.43h-4.7519Z" transform="translate(-2.7358 -5.5259)"/><path class="cls-2" d="M161.17,30.4736a12.2726,12.2726,0,0,1-8.9638-3.5815,11.9153,11.9153,0,0,1-3.6368-8.8384,12.0924,12.0924,0,0,1,3.6182-8.9277,12.2269,12.2269,0,0,1,8.9824-3.6,12.4367,12.4367,0,0,1,9.0537,3.6181,11.9469,11.9469,0,0,1,3.69,8.8741,11.8875,11.8875,0,0,1-3.69,8.8559A12.47,12.47,0,0,1,161.17,30.4736Zm.0713-19.5117a6.1376,6.1376,0,0,0-4.68,2.0059,7.0184,7.0184,0,0,0-1.872,4.978,7.1347,7.1347,0,0,0,1.8906,5.0688,6.2057,6.2057,0,0,0,4.7334,2.0235,6.0328,6.0328,0,0,0,4.6084-2.0235,7.04,7.04,0,0,0,1.872-4.9609,7.1491,7.1491,0,0,0-1.8906-5.05A6.1,6.1,0,0,0,161.2412,10.9619Z" transform="translate(-2.7358 -5.5259)"/><polygon class="cls-2" points="118.654 75.977 156.554 75.977 137.604 95.227 118.654 114.477 99.703 95.227 80.753 75.977 118.654 75.977"/></g></g></svg>