<svg xmlns="http://www.w3.org/2000/svg" width="176.4517" height="71.7533" viewBox="0 0 176.4517 71.7533"><defs><style>.cls-1{fill:#fff;}.cls-2{fill:#333;}</style></defs><g id="Layer_2" data-name="Layer 2"><g id="MOBILE_PG2" data-name="MOBILE PG2"><path class="cls-1" d="M11.3726,39.4121q3.219,0,4.8437-3.3389h5.3555a9.8715,9.8715,0,0,1-3.6558,5.7159,10.3328,10.3328,0,0,1-6.4834,2.166A10.2447,10.2447,0,0,1,3.9414,40.917,10.0587,10.0587,0,0,1,.8726,33.4854a9.9732,9.9732,0,0,1,3.0385-7.3711,10.1993,10.1993,0,0,1,7.4615-3.0088,9.9111,9.9111,0,0,1,8.9052,4.8437,8.4532,8.4532,0,0,1,1.294,3.1895H16.2163a5.3635,5.3635,0,0,0-1.9106-2.55,4.9533,4.9533,0,0,0-2.9634-.9405,4.9688,4.9688,0,0,0-3.8208,1.6768,5.9319,5.9319,0,0,0-1.5342,4.16,6.0439,6.0439,0,0,0,1.5493,4.2207A4.9727,4.9727,0,0,0,11.3726,39.4121Z" transform="translate(-0.8726 -3.4639)"/><path class="cls-1" d="M33.5454,43.9551a10.2572,10.2572,0,0,1-7.4912-2.9932,9.96,9.96,0,0,1-3.0386-7.3857,10.1068,10.1068,0,0,1,3.0235-7.4619,10.2216,10.2216,0,0,1,7.5063-3.0088A10.3914,10.3914,0,0,1,41.1123,26.13a9.9831,9.9831,0,0,1,3.0835,7.416,9.932,9.932,0,0,1-3.0835,7.4A10.4214,10.4214,0,0,1,33.5454,43.9551Zm.0606-16.3067a5.1286,5.1286,0,0,0-3.9112,1.6768,5.8648,5.8648,0,0,0-1.5644,4.16A5.9679,5.9679,0,0,0,29.71,37.7217a5.1886,5.1886,0,0,0,3.9565,1.69,5.043,5.043,0,0,0,3.8511-1.69,5.8824,5.8824,0,0,0,1.5644-4.1455,5.98,5.98,0,0,0-1.5795-4.2207A5.1,5.1,0,0,0,33.606,27.6484Z" transform="translate(-0.8726 -3.4639)"/><path class="cls-1" d="M51.6567,43.5645H46.7529V23.4971h4.3926l7.8223,12.6357-.21-12.6357h4.9038V43.5645H59.2085L51.4463,31.38Z" transform="translate(-0.8726 -3.4639)"/><path class="cls-1" d="M74.6724,43.5645H69.5581V28.04H65.5864V23.4971H78.644V28.04H74.6724Z" transform="translate(-0.8726 -3.4639)"/><path class="cls-1" d="M92.1821,43.5645l-.9629-2.919h-6.98l-1.0528,2.919H77.6807l8.0332-20.0674h4.0615L97.748,43.5645Zm-4.4228-13.84-2.106,6.8594h4.1821Z" transform="translate(-0.8726 -3.4639)"/><path class="cls-1" d="M108.1577,39.4121q3.219,0,4.8438-3.3389h5.3554a9.8714,9.8714,0,0,1-3.6557,5.7159,10.769,10.769,0,0,1-13.9746-.8721,10.0588,10.0588,0,0,1-3.0689-7.4316,9.973,9.973,0,0,1,3.0386-7.3711,10.1992,10.1992,0,0,1,7.4614-3.0088,9.9113,9.9113,0,0,1,8.9053,4.8437,8.4529,8.4529,0,0,1,1.2939,3.1895h-5.3554a5.3631,5.3631,0,0,0-1.9107-2.55,5.1694,5.1694,0,0,0-6.7842.7363,5.9323,5.9323,0,0,0-1.5341,4.16,6.0439,6.0439,0,0,0,1.5493,4.2207A4.9727,4.9727,0,0,0,108.1577,39.4121Z" transform="translate(-0.8726 -3.4639)"/><path class="cls-1" d="M128.2246,43.5645H123.11V28.04h-3.9717V23.4971h13.0576V28.04h-3.9717Z" transform="translate(-0.8726 -3.4639)"/><path class="cls-1" d="M146.3057,43.5645h-4.6934V23.4971h6.5889l3.9712,13.208,3.9716-13.208h6.6187V43.5645h-4.7236l.1806-15.0733-4.3325,15.0733h-3.3994l-4.3325-15.0733Z" transform="translate(-0.8726 -3.4639)"/><path class="cls-1" d="M177.3242,43.5645H166.1924V23.4971h11.1318V28.04h-6.228v3.0684h6.0474v4.543h-6.0474v3.37h6.228Z" transform="translate(-0.8726 -3.4639)"/><path class="cls-2" d="M63.458,13.3242V10.2559h8.9131q.0455.7221.0454.7666a7.9022,7.9022,0,0,1-8.0557,8.0781,7.7283,7.7283,0,0,1-5.6523-2.29,7.5609,7.5609,0,0,1-2.313-5.5849A7.3613,7.3613,0,0,1,58.72,5.6973a8.2874,8.2874,0,0,1,10.4473-.711,6.8515,6.8515,0,0,1,2.7754,3.8252h-4.31a3.507,3.507,0,0,0-3.2944-1.94,3.9279,3.9279,0,0,0-2.9336,1.2041A4.1347,4.1347,0,0,0,60.2314,11.08a4.7522,4.7522,0,0,0,1.1958,3.376,4.1423,4.1423,0,0,0,3.1817,1.2822,3.5842,3.5842,0,0,0,2.1548-.6426,2.9557,2.9557,0,0,0,1.1621-1.7715Z" transform="translate(-0.8726 -3.4639)"/><path class="cls-2" d="M81.6,19.1006a7.6918,7.6918,0,0,1-5.6182-2.2451,7.4651,7.4651,0,0,1-2.2793-5.5391A7.5819,7.5819,0,0,1,75.97,5.72,7.6651,7.6651,0,0,1,81.6,3.4639a7.7975,7.7975,0,0,1,5.6753,2.2675,7.49,7.49,0,0,1,2.3125,5.5616,7.4539,7.4539,0,0,1-2.3125,5.5517A7.8189,7.8189,0,0,1,81.6,19.1006ZM81.645,6.8711a3.8469,3.8469,0,0,0-2.9336,1.2568,4.4009,4.4009,0,0,0-1.1733,3.12,4.4765,4.4765,0,0,0,1.1846,3.1778A3.8932,3.8932,0,0,0,81.69,15.6934a3.7825,3.7825,0,0,0,2.8882-1.2676,4.4106,4.4106,0,0,0,1.1734-3.1094A4.4838,4.4838,0,0,0,84.5669,8.15,3.8256,3.8256,0,0,0,81.645,6.8711Z" transform="translate(-0.8726 -3.4639)"/><path class="cls-2" d="M102.8325,18.8076H98.9966V7.1641H96.0181V3.7568h9.7929V7.1641h-2.9785Z" transform="translate(-0.8726 -3.4639)"/><path class="cls-2" d="M114.2275,19.1006a7.6916,7.6916,0,0,1-5.6181-2.2451,7.4651,7.4651,0,0,1-2.2793-5.5391A7.5815,7.5815,0,0,1,108.5977,5.72a7.6649,7.6649,0,0,1,5.63-2.2558,7.7971,7.7971,0,0,1,5.6753,2.2675,7.49,7.49,0,0,1,2.3125,5.5616,7.4539,7.4539,0,0,1-2.3125,5.5517A7.8185,7.8185,0,0,1,114.2275,19.1006Zm.0454-12.2295a3.8465,3.8465,0,0,0-2.9335,1.2568,4.4005,4.4005,0,0,0-1.1734,3.12,4.4765,4.4765,0,0,0,1.1846,3.1778,3.8932,3.8932,0,0,0,2.9673,1.2676,3.7828,3.7828,0,0,0,2.8882-1.2676,4.411,4.411,0,0,0,1.1733-3.1094,4.4834,4.4834,0,0,0-1.1846-3.166A3.8253,3.8253,0,0,0,114.2729,6.8711Z" transform="translate(-0.8726 -3.4639)"/><polygon class="cls-2" points="88.421 47.622 112.177 47.622 100.299 59.688 88.421 71.753 76.544 59.688 64.666 47.622 88.421 47.622"/></g></g></svg>