<svg xmlns="http://www.w3.org/2000/svg" width="41.6886" height="41.6886" viewBox="0 0 41.6886 41.6886"><defs><style>.cls-1{fill:#333;}.cls-2{fill:#fff;}</style></defs><g id="Layer_2" data-name="Layer 2"><g id="MOBILE_PG2" data-name="MOBILE PG2"><rect class="cls-1" width="41.6886" height="41.6886" rx="6"/><path class="cls-2" d="M8.9844,14.0305v-6.11H32.9551v6.11Z" transform="translate(-0.0634)"/><path class="cls-2" d="M8.9844,22.1516V16.2937H32.9551v7.583a22.1552,22.1552,0,0,1-.3594,4.6182,6.4059,6.4059,0,0,1-1.3652,2.7495,8.1065,8.1065,0,0,1-6.5772,2.9467A7.793,7.793,0,0,1,19.64,32.574a6.8153,6.8153,0,0,1-2.4975-4.3487L8.9844,34.73V27.7224l7.7627-5.5708Zm18.5444,0H20.916v2.1567q0,3.9888,3.3594,3.9888,3.2533,0,3.2534-3.917Z" transform="translate(-0.0634)"/></g></g></svg>