<svg xmlns="http://www.w3.org/2000/svg" width="295.876" height="128.1567" viewBox="0 0 295.876 128.1567"><defs><style>.cls-1{fill:#333;}.cls-2{fill:#fff;}</style></defs><g id="Layer_2" data-name="Layer 2"><g id="MOBILE_PG1" data-name="MOBILE PG1"><path class="cls-1" d="M13.479,129.7871.5273,79.5615H13.5542l6.7017,32.6807,7.455-32.6807h9.8643l7.3794,32.8311,6.8525-32.8311H64.834L51.5059,129.7871H40.21L32.6055,97.3325,25,129.7871Z" transform="translate(-0.5273 -2.6094)"/><path class="cls-1" d="M91.04,130.7661a25.6714,25.6714,0,0,1-18.75-7.4927,24.9229,24.9229,0,0,1-7.6055-18.4863A25.2949,25.2949,0,0,1,72.252,86.1128a25.5763,25.5763,0,0,1,18.7876-7.53A26.0134,26.0134,0,0,1,109.9775,86.15a26.1329,26.1329,0,0,1,0,37.0854A26.0813,26.0813,0,0,1,91.04,130.7661Zm.15-40.813a12.8352,12.8352,0,0,0-9.789,4.1953,14.68,14.68,0,0,0-3.9155,10.4131,14.931,14.931,0,0,0,3.9531,10.6021,12.9842,12.9842,0,0,0,9.9023,4.2319,12.6162,12.6162,0,0,0,9.6382-4.2319,14.7176,14.7176,0,0,0,3.916-10.3765,14.9615,14.9615,0,0,0-3.9536-10.563A12.7605,12.7605,0,0,0,91.19,89.9531Z" transform="translate(-0.5273 -2.6094)"/><path class="cls-1" d="M134.4873,129.7871H122.2129V79.5615h15.8887a46.4181,46.4181,0,0,1,9.6762.753,13.4185,13.4185,0,0,1,5.76,2.8613q6.1736,5.1218,6.1748,13.78a16.3249,16.3249,0,0,1-3.3887,10.5043,14.2812,14.2812,0,0,1-9.1113,5.2334l13.6294,17.0933H146.1587L134.4873,113.522Zm0-38.8555v13.8555h4.5181q8.3583,0,8.3584-7.0395,0-6.816-8.208-6.816Z" transform="translate(-0.5273 -2.6094)"/><path class="cls-1" d="M177.2578,129.7871H164.4565V79.5615h12.8013v22.6656l14.3071-22.6656h13.479l-16.7168,25.0752,17.771,25.15h-15.06l-13.78-21.6865Z" transform="translate(-0.5273 -2.6094)"/><path class="cls-1" d="M80.2935,28.0327a13.5659,13.5659,0,0,1,2.4848,4.1792,22.9144,22.9144,0,0,1,.9038,5.6856H70.9561q-.6776-4.8186-4.5933-4.8194a4.6461,4.6461,0,0,0-3.125,1.1294,3.4549,3.4549,0,0,0-1.3179,2.711q0,3.0124,4.2925,4.97l6.1743,2.7861q6.3259,2.863,8.9986,6.1748a12.7736,12.7736,0,0,1,2.6733,8.2832q0,7.2291-4.6309,11.2949t-12.914,4.0665q-8.4347,0-13.3286-4.2925Q48.29,65.9091,48.2905,58.605V56.9482H61.167a7.9391,7.9391,0,0,0,1.4038,4.9327,4.5516,4.5516,0,0,0,3.8311,1.8447,4.93,4.93,0,0,0,3.5649-1.3931,4.5808,4.5808,0,0,0,1.4414-3.4262q0-3.2367-5.3643-5.4219l-5.8178-2.4092a26.1443,26.1443,0,0,1-6.0445-3.54,12.7472,12.7472,0,0,1-5.0625-10.3911,13.253,13.253,0,0,1,5.12-10.5424,18.805,18.805,0,0,1,12.5-4.292Q75.55,22.31,80.2935,28.0327Z" transform="translate(-0.5273 -2.6094)"/><path class="cls-1" d="M120.2026,73.5146l-2.41-7.3042h-17.47l-2.6353,7.3042h-13.78l20.1055-50.2255h10.1655l19.9551,50.2255ZM109.1333,38.8765l-5.271,17.1684h10.4668Z" transform="translate(-0.5273 -2.6094)"/><path class="cls-1" d="M147.9873,73.5146H136.24V23.2891h16.4912l9.9395,33.0571,9.94-33.0571h16.566V73.5146H177.3545l.4521-37.7255L166.9634,73.5146h-8.5093L147.6108,35.7891Z" transform="translate(-0.5273 -2.6094)"/><path class="cls-1" d="M208.1519,73.5146H195.8774V23.2891H212.293q10.9175,0,15.437,3.7651,5.8733,4.8956,5.8735,13.3281,0,8.1321-5.271,13.0269-4.67,4.3682-14.6841,4.3677h-5.4965Zm0-38.8554V46.4063h5.1953q7.9812,0,7.9819-5.836,0-5.91-8.5088-5.9111Z" transform="translate(-0.5273 -2.6094)"/><path class="cls-1" d="M265.1538,73.5146H237.5181V23.2891h12.8012V62.144h14.8345Z" transform="translate(-0.5273 -2.6094)"/><path class="cls-1" d="M296.4033,73.5146H268.542V23.2891h27.8613v11.37H280.8164V42.34h15.1353V53.71H280.8164V62.144h15.5869Z" transform="translate(-0.5273 -2.6094)"/><path class="cls-2" d="M87.3232,14.1694h-2.89V2.8306h2.89Z" transform="translate(-0.5273 -2.6094)"/><path class="cls-2" d="M97.4551,3.9014a3.0687,3.0687,0,0,1,.561.9433A5.1826,5.1826,0,0,1,98.22,6.1284h-2.873Q95.194,5.0407,94.31,5.0405a1.0494,1.0494,0,0,0-.7056.2549.78.78,0,0,0-.2974.6118q0,.68.9688,1.1221l1.394.6289a5.5041,5.5041,0,0,1,2.0318,1.394,2.8865,2.8865,0,0,1,.6035,1.87,3.2177,3.2177,0,0,1-1.0454,2.55,4.2741,4.2741,0,0,1-2.9156.9179,4.4055,4.4055,0,0,1-3.0092-.9692,3.3044,3.3044,0,0,1-1.105-2.6182v-.374h2.9072a1.7939,1.7939,0,0,0,.3169,1.1138,1.0266,1.0266,0,0,0,.8647.4165,1.1116,1.1116,0,0,0,.8047-.3145,1.0345,1.0345,0,0,0,.3257-.7734q0-.731-1.2109-1.2241l-1.3135-.544A5.91,5.91,0,0,1,91.56,8.3042,2.8769,2.8769,0,0,1,90.417,5.9585a2.9915,2.9915,0,0,1,1.1562-2.38,4.245,4.245,0,0,1,2.8218-.9692A3.75,3.75,0,0,1,97.4551,3.9014Z" transform="translate(-0.5273 -2.6094)"/><path class="cls-2" d="M103.2183,14.1694h-2.6519V2.8306h3.7227l2.2441,7.4629,2.2441-7.4629h3.74V14.1694h-2.669l.1021-8.5171-2.4482,8.5171h-1.9209l-2.4478-8.5171Z" transform="translate(-0.5273 -2.6094)"/><path class="cls-2" d="M122.479,14.1694l-.5439-1.6489h-3.9444l-.5947,1.6489h-3.1108l4.5385-11.3388h2.2954l4.5049,11.3388ZM119.98,6.35l-1.19,3.876h2.3628Z" transform="translate(-0.5273 -2.6094)"/><path class="cls-2" d="M133.6646,14.1694h-6.29V2.8306h6.29V5.3975H130.146V7.1313h3.417V9.6982h-3.417v1.9043h3.5186Z" transform="translate(-0.5273 -2.6094)"/><path class="cls-2" d="M142.4365,14.1694h-6.2387V2.8306h2.89v8.7719h3.3491Z" transform="translate(-0.5273 -2.6094)"/><path class="cls-2" d="M152.3477,14.1694h-2.771V2.8306h3.5869a10.4767,10.4767,0,0,1,2.1845.17,3.0266,3.0266,0,0,1,1.3.646,3.8331,3.8331,0,0,1,1.3941,3.1108,3.6845,3.6845,0,0,1-.7652,2.3716,3.2241,3.2241,0,0,1-2.0571,1.1816l3.0772,3.8589h-3.315l-2.6347-3.6718Zm0-8.7719V8.5254h1.0195q1.8874,0,1.8872-1.5894,0-1.5387-1.853-1.5385Z" transform="translate(-0.5273 -2.6094)"/><path class="cls-2" d="M163.2783,14.1694h-2.89V2.8306h2.89Z" transform="translate(-0.5273 -2.6094)"/><path class="cls-2" d="M168.7012,14.1694,164.91,2.8306h2.9917l2.2954,7.956,2.2949-7.956h2.9917l-3.8076,11.3388Z" transform="translate(-0.5273 -2.6094)"/><path class="cls-2" d="M183.4229,14.1694h-6.29V2.8306h6.29V5.3975h-3.5186V7.1313h3.417V9.6982h-3.417v1.9043h3.5186Z" transform="translate(-0.5273 -2.6094)"/><path class="cls-2" d="M188.7271,14.1694h-2.771V2.8306h3.5869a10.4767,10.4767,0,0,1,2.1845.17,3.0266,3.0266,0,0,1,1.3.646,3.8331,3.8331,0,0,1,1.3941,3.1108,3.6845,3.6845,0,0,1-.7652,2.3716A3.2241,3.2241,0,0,1,191.6,10.3105l3.0772,3.8589h-3.315l-2.6347-3.6718Zm0-8.7719V8.5254h1.0195q1.8875,0,1.8872-1.5894,0-1.5387-1.853-1.5385Z" transform="translate(-0.5273 -2.6094)"/><path class="cls-2" d="M204.3159,14.1694l-.5439-1.6489h-3.9444l-.5947,1.6489h-3.1108l4.5385-11.3388h2.2955l4.5048,11.3388Zm-2.499-7.82-1.19,3.876H202.99Z" transform="translate(-0.5273 -2.6094)"/></g></g></svg>